<?xml version="1.0" encoding="utf-8" standalone="no"?>
<!DOCTYPE svg PUBLIC "-//W3C//DTD SVG 1.1//EN"
  "http://www.w3.org/Graphics/SVG/1.1/DTD/svg11.dtd">
<!-- Created with matplotlib (https://matplotlib.org/) -->
<svg height="576pt" version="1.1" viewBox="0 0 720 576" width="720pt" xmlns="http://www.w3.org/2000/svg" xmlns:xlink="http://www.w3.org/1999/xlink">
 <metadata>
  <rdf:RDF xmlns:cc="http://creativecommons.org/ns#" xmlns:dc="http://purl.org/dc/elements/1.1/" xmlns:rdf="http://www.w3.org/1999/02/22-rdf-syntax-ns#">
   <cc:Work>
    <dc:type rdf:resource="http://purl.org/dc/dcmitype/StillImage"/>
    <dc:date>2024-07-10T10:08:11.781013</dc:date>
    <dc:format>image/svg+xml</dc:format>
    <dc:creator>
     <cc:Agent>
      <dc:title>Matplotlib v3.3.4, https://matplotlib.org/</dc:title>
     </cc:Agent>
    </dc:creator>
   </cc:Work>
  </rdf:RDF>
 </metadata>
 <defs>
  <style type="text/css">*{stroke-linecap:butt;stroke-linejoin:round;}</style>
 </defs>
 <g id="figure_1">
  <g id="patch_1">
   <path d="M 0 576 
L 720 576 
L 720 0 
L 0 0 
z
" style="fill:#ffffff;"/>
  </g>
  <g id="axes_1">
   <g id="patch_2">
    <path d="M 90 512.64 
L 648 512.64 
L 648 69.12 
L 90 69.12 
z
" style="fill:#ffffff;"/>
   </g>
   <g id="PolyCollection_1">
    <defs>
     <path d="M 262.59936 -83.52 
L 196.40064 -83.52 
L 194.404833 -84.02237 
L 192.423403 -84.524741 
L 190.471909 -85.027111 
L 188.566429 -85.529482 
L 186.72334 -86.031852 
L 184.959092 -86.534222 
L 183.28997 -87.036593 
L 181.731844 -87.538963 
L 180.299918 -88.041334 
L 179.008489 -88.543704 
L 177.870702 -89.046074 
L 176.898332 -89.548445 
L 176.101576 -90.050815 
L 175.488877 -90.553186 
L 175.066771 -91.055556 
L 174.839767 -91.557926 
L 174.810267 -92.060297 
L 174.978519 -92.562667 
L 175.342609 -93.065038 
L 175.898493 -93.567408 
L 176.640065 -94.069778 
L 177.559264 -94.572149 
L 178.64621 -95.074519 
L 179.889375 -95.57689 
L 181.275773 -96.07926 
L 182.791178 -96.58163 
L 184.420352 -97.084001 
L 186.147285 -97.586371 
L 187.955442 -98.088742 
L 189.828008 -98.591112 
L 191.748124 -99.093483 
L 193.699118 -99.595853 
L 195.664718 -100.098223 
L 197.629248 -100.600594 
L 199.577797 -101.102964 
L 201.496375 -101.605335 
L 203.372031 -102.107705 
L 205.192958 -102.610075 
L 206.948556 -103.112446 
L 208.629486 -103.614816 
L 210.22769 -104.117187 
L 211.736386 -104.619557 
L 213.150055 -105.121927 
L 214.464397 -105.624298 
L 215.676279 -106.126668 
L 216.783671 -106.629039 
L 217.785573 -107.131409 
L 218.681933 -107.633779 
L 219.473564 -108.13615 
L 220.162061 -108.63852 
L 220.749717 -109.140891 
L 221.239444 -109.643261 
L 221.634698 -110.145631 
L 221.939407 -110.648002 
L 222.157912 -111.150372 
L 222.294908 -111.652743 
L 222.355391 -112.155113 
L 222.344619 -112.657483 
L 222.268072 -113.159854 
L 222.131415 -113.662224 
L 221.940471 -114.164595 
L 221.701194 -114.666965 
L 221.419639 -115.169335 
L 221.10194 -115.671706 
L 220.754284 -116.174076 
L 220.382879 -116.676447 
L 219.993927 -117.178817 
L 219.593593 -117.681187 
L 219.187966 -118.183558 
L 218.783021 -118.685928 
L 218.384578 -119.188299 
L 217.998258 -119.690669 
L 217.629437 -120.193039 
L 217.283199 -120.69541 
L 216.964287 -121.19778 
L 216.677061 -121.700151 
L 216.42545 -122.202521 
L 216.212913 -122.704891 
L 216.042406 -123.207262 
L 215.916346 -123.709632 
L 215.836589 -124.212003 
L 215.804418 -124.714373 
L 215.820529 -125.216743 
L 215.885033 -125.719114 
L 215.997468 -126.221484 
L 216.156812 -126.723855 
L 216.361514 -127.226225 
L 216.609527 -127.728596 
L 216.898347 -128.230966 
L 217.225068 -128.733336 
L 217.586431 -129.235707 
L 217.978884 -129.738077 
L 218.398644 -130.240448 
L 218.841761 -130.742818 
L 219.304179 -131.245188 
L 219.781802 -131.747559 
L 220.270553 -132.249929 
L 220.766433 -132.7523 
L 221.265572 -133.25467 
L 237.734428 -133.25467 
L 237.734428 -133.25467 
L 238.233567 -132.7523 
L 238.729447 -132.249929 
L 239.218198 -131.747559 
L 239.695821 -131.245188 
L 240.158239 -130.742818 
L 240.601356 -130.240448 
L 241.021116 -129.738077 
L 241.413569 -129.235707 
L 241.774932 -128.733336 
L 242.101653 -128.230966 
L 242.390473 -127.728596 
L 242.638486 -127.226225 
L 242.843188 -126.723855 
L 243.002532 -126.221484 
L 243.114967 -125.719114 
L 243.179471 -125.216743 
L 243.195582 -124.714373 
L 243.163411 -124.212003 
L 243.083654 -123.709632 
L 242.957594 -123.207262 
L 242.787087 -122.704891 
L 242.57455 -122.202521 
L 242.322939 -121.700151 
L 242.035713 -121.19778 
L 241.716801 -120.69541 
L 241.370563 -120.193039 
L 241.001742 -119.690669 
L 240.615422 -119.188299 
L 240.216979 -118.685928 
L 239.812034 -118.183558 
L 239.406407 -117.681187 
L 239.006073 -117.178817 
L 238.617121 -116.676447 
L 238.245716 -116.174076 
L 237.89806 -115.671706 
L 237.580361 -115.169335 
L 237.298806 -114.666965 
L 237.059529 -114.164595 
L 236.868585 -113.662224 
L 236.731928 -113.159854 
L 236.655381 -112.657483 
L 236.644609 -112.155113 
L 236.705092 -111.652743 
L 236.842088 -111.150372 
L 237.060593 -110.648002 
L 237.365302 -110.145631 
L 237.760556 -109.643261 
L 238.250283 -109.140891 
L 238.837939 -108.63852 
L 239.526436 -108.13615 
L 240.318067 -107.633779 
L 241.214427 -107.131409 
L 242.216329 -106.629039 
L 243.323721 -106.126668 
L 244.535603 -105.624298 
L 245.849945 -105.121927 
L 247.263614 -104.619557 
L 248.77231 -104.117187 
L 250.370514 -103.614816 
L 252.051444 -103.112446 
L 253.807042 -102.610075 
L 255.627969 -102.107705 
L 257.503625 -101.605335 
L 259.422203 -101.102964 
L 261.370752 -100.600594 
L 263.335282 -100.098223 
L 265.300882 -99.595853 
L 267.251876 -99.093483 
L 269.171992 -98.591112 
L 271.044558 -98.088742 
L 272.852715 -97.586371 
L 274.579648 -97.084001 
L 276.208822 -96.58163 
L 277.724227 -96.07926 
L 279.110625 -95.57689 
L 280.35379 -95.074519 
L 281.440736 -94.572149 
L 282.359935 -94.069778 
L 283.101507 -93.567408 
L 283.657391 -93.065038 
L 284.021481 -92.562667 
L 284.189733 -92.060297 
L 284.160233 -91.557926 
L 283.933229 -91.055556 
L 283.511123 -90.553186 
L 282.898424 -90.050815 
L 282.101668 -89.548445 
L 281.129298 -89.046074 
L 279.991511 -88.543704 
L 278.700082 -88.041334 
L 277.268156 -87.538963 
L 275.71003 -87.036593 
L 274.040908 -86.534222 
L 272.27666 -86.031852 
L 270.433571 -85.529482 
L 268.528091 -85.027111 
L 266.576597 -84.524741 
L 264.595167 -84.02237 
L 262.59936 -83.52 
z
" id="m7c78a50006" style="stroke:#666666;"/>
    </defs>
    <g clip-path="url(#p975c61f394)">
     <use style="fill:#8caec8;stroke:#666666;" x="0" xlink:href="#m7c78a50006" y="576"/>
    </g>
   </g>
   <g id="PolyCollection_2">
    <defs>
     <path d="M 529.481145 -466.557525 
L 487.518855 -466.557525 
L 485.885613 -466.761187 
L 484.220471 -466.964848 
L 482.53346 -467.168509 
L 480.835256 -467.372171 
L 479.137014 -467.575832 
L 477.450178 -467.779493 
L 475.786276 -467.983155 
L 474.156713 -468.186816 
L 472.572545 -468.390478 
L 471.04427 -468.594139 
L 469.581614 -468.7978 
L 468.193334 -469.001462 
L 466.88704 -469.205123 
L 465.669042 -469.408784 
L 464.54422 -469.612446 
L 463.515932 -469.816107 
L 462.585949 -470.019768 
L 461.754429 -470.22343 
L 461.019926 -470.427091 
L 460.379429 -470.630752 
L 459.828435 -470.834414 
L 459.361052 -471.038075 
L 458.97012 -471.241737 
L 458.647355 -471.445398 
L 458.383503 -471.649059 
L 458.16851 -471.852721 
L 457.991682 -472.056382 
L 457.841854 -472.260043 
L 457.707545 -472.463705 
L 457.577107 -472.667366 
L 457.438857 -472.871027 
L 457.281195 -473.074689 
L 457.092709 -473.27835 
L 456.862262 -473.482012 
L 456.579062 -473.685673 
L 456.23273 -473.889334 
L 455.813351 -474.092996 
L 455.311524 -474.296657 
L 454.71841 -474.500318 
L 454.025788 -474.70398 
L 453.226113 -474.907641 
L 452.312585 -475.111302 
L 451.279238 -475.314964 
L 450.121031 -475.518625 
L 448.833971 -475.722287 
L 447.415236 -475.925948 
L 445.863319 -476.129609 
L 444.17818 -476.333271 
L 442.361399 -476.536932 
L 440.416337 -476.740593 
L 438.348278 -476.944255 
L 436.164572 -477.147916 
L 433.874737 -477.351577 
L 431.490552 -477.555239 
L 429.0261 -477.7589 
L 426.49777 -477.962561 
L 423.924212 -478.166223 
L 421.32624 -478.369884 
L 418.726676 -478.573546 
L 416.150135 -478.777207 
L 413.622758 -478.980868 
L 411.171885 -479.18453 
L 408.825683 -479.388191 
L 406.61273 -479.591852 
L 404.561565 -479.795514 
L 402.700207 -479.999175 
L 401.055673 -480.202836 
L 399.653481 -480.406498 
L 398.517173 -480.610159 
L 397.667858 -480.813821 
L 397.123792 -481.017482 
L 396.9 -481.221143 
L 397.007965 -481.424805 
L 397.455374 -481.628466 
L 398.245943 -481.832127 
L 399.379318 -482.035789 
L 400.851058 -482.23945 
L 402.652694 -482.443111 
L 404.77188 -482.646773 
L 407.192603 -482.850434 
L 409.89548 -483.054096 
L 412.858098 -483.257757 
L 416.055427 -483.461418 
L 419.460253 -483.66508 
L 423.043663 -483.868741 
L 426.775527 -484.072402 
L 430.625006 -484.276064 
L 434.561041 -484.479725 
L 438.552834 -484.683386 
L 442.570297 -484.887048 
L 446.584471 -485.090709 
L 450.567898 -485.29437 
L 454.494947 -485.498032 
L 458.342089 -485.701693 
L 462.088106 -485.905355 
L 465.714259 -486.109016 
L 469.204386 -486.312677 
L 472.544949 -486.516339 
L 475.725037 -486.72 
L 541.274963 -486.72 
L 541.274963 -486.72 
L 544.455051 -486.516339 
L 547.795614 -486.312677 
L 551.285741 -486.109016 
L 554.911894 -485.905355 
L 558.657911 -485.701693 
L 562.505053 -485.498032 
L 566.432102 -485.29437 
L 570.415529 -485.090709 
L 574.429703 -484.887048 
L 578.447166 -484.683386 
L 582.438959 -484.479725 
L 586.374994 -484.276064 
L 590.224473 -484.072402 
L 593.956337 -483.868741 
L 597.539747 -483.66508 
L 600.944573 -483.461418 
L 604.141902 -483.257757 
L 607.10452 -483.054096 
L 609.807397 -482.850434 
L 612.22812 -482.646773 
L 614.347306 -482.443111 
L 616.148942 -482.23945 
L 617.620682 -482.035789 
L 618.754057 -481.832127 
L 619.544626 -481.628466 
L 619.992035 -481.424805 
L 620.1 -481.221143 
L 619.876208 -481.017482 
L 619.332142 -480.813821 
L 618.482827 -480.610159 
L 617.346519 -480.406498 
L 615.944327 -480.202836 
L 614.299793 -479.999175 
L 612.438435 -479.795514 
L 610.38727 -479.591852 
L 608.174317 -479.388191 
L 605.828115 -479.18453 
L 603.377242 -478.980868 
L 600.849865 -478.777207 
L 598.273324 -478.573546 
L 595.67376 -478.369884 
L 593.075788 -478.166223 
L 590.50223 -477.962561 
L 587.9739 -477.7589 
L 585.509448 -477.555239 
L 583.125263 -477.351577 
L 580.835428 -477.147916 
L 578.651722 -476.944255 
L 576.583663 -476.740593 
L 574.638601 -476.536932 
L 572.82182 -476.333271 
L 571.136681 -476.129609 
L 569.584764 -475.925948 
L 568.166029 -475.722287 
L 566.878969 -475.518625 
L 565.720762 -475.314964 
L 564.687415 -475.111302 
L 563.773887 -474.907641 
L 562.974212 -474.70398 
L 562.28159 -474.500318 
L 561.688476 -474.296657 
L 561.186649 -474.092996 
L 560.76727 -473.889334 
L 560.420938 -473.685673 
L 560.137738 -473.482012 
L 559.907291 -473.27835 
L 559.718805 -473.074689 
L 559.561143 -472.871027 
L 559.422893 -472.667366 
L 559.292455 -472.463705 
L 559.158146 -472.260043 
L 559.008318 -472.056382 
L 558.83149 -471.852721 
L 558.616497 -471.649059 
L 558.352645 -471.445398 
L 558.02988 -471.241737 
L 557.638948 -471.038075 
L 557.171565 -470.834414 
L 556.620571 -470.630752 
L 555.980074 -470.427091 
L 555.245571 -470.22343 
L 554.414051 -470.019768 
L 553.484068 -469.816107 
L 552.45578 -469.612446 
L 551.330958 -469.408784 
L 550.11296 -469.205123 
L 548.806666 -469.001462 
L 547.418386 -468.7978 
L 545.95573 -468.594139 
L 544.427455 -468.390478 
L 542.843287 -468.186816 
L 541.213724 -467.983155 
L 539.549822 -467.779493 
L 537.862986 -467.575832 
L 536.164744 -467.372171 
L 534.46654 -467.168509 
L 532.779529 -466.964848 
L 531.114387 -466.761187 
L 529.481145 -466.557525 
z
" id="mf8c728a443" style="stroke:#666666;"/>
    </defs>
    <g clip-path="url(#p975c61f394)">
     <use style="fill:#b2b2ce;stroke:#666666;" x="0" xlink:href="#mf8c728a443" y="576"/>
    </g>
   </g>
   <g id="matplotlib.axis_1">
    <g id="xtick_1">
     <g id="line2d_1">
      <defs>
       <path d="M 0 0 
L 0 3.5 
" id="me477b5e947" style="stroke:#000000;stroke-width:0.8;"/>
      </defs>
      <g>
       <use style="stroke:#000000;stroke-width:0.8;" x="229.5" xlink:href="#me477b5e947" y="512.64"/>
      </g>
     </g>
     <g id="text_1">
      <!-- Prototype -->
      <g transform="translate(171.613125 537.87625)scale(0.24 -0.24)">
       <defs>
        <path d="M 19.671875 64.796875 
L 19.671875 37.40625 
L 32.078125 37.40625 
Q 38.96875 37.40625 42.71875 40.96875 
Q 46.484375 44.53125 46.484375 51.125 
Q 46.484375 57.671875 42.71875 61.234375 
Q 38.96875 64.796875 32.078125 64.796875 
z
M 9.8125 72.90625 
L 32.078125 72.90625 
Q 44.34375 72.90625 50.609375 67.359375 
Q 56.890625 61.8125 56.890625 51.125 
Q 56.890625 40.328125 50.609375 34.8125 
Q 44.34375 29.296875 32.078125 29.296875 
L 19.671875 29.296875 
L 19.671875 0 
L 9.8125 0 
z
" id="DejaVuSans-80"/>
        <path d="M 41.109375 46.296875 
Q 39.59375 47.171875 37.8125 47.578125 
Q 36.03125 48 33.890625 48 
Q 26.265625 48 22.1875 43.046875 
Q 18.109375 38.09375 18.109375 28.8125 
L 18.109375 0 
L 9.078125 0 
L 9.078125 54.6875 
L 18.109375 54.6875 
L 18.109375 46.1875 
Q 20.953125 51.171875 25.484375 53.578125 
Q 30.03125 56 36.53125 56 
Q 37.453125 56 38.578125 55.875 
Q 39.703125 55.765625 41.0625 55.515625 
z
" id="DejaVuSans-114"/>
        <path d="M 30.609375 48.390625 
Q 23.390625 48.390625 19.1875 42.75 
Q 14.984375 37.109375 14.984375 27.296875 
Q 14.984375 17.484375 19.15625 11.84375 
Q 23.34375 6.203125 30.609375 6.203125 
Q 37.796875 6.203125 41.984375 11.859375 
Q 46.1875 17.53125 46.1875 27.296875 
Q 46.1875 37.015625 41.984375 42.703125 
Q 37.796875 48.390625 30.609375 48.390625 
z
M 30.609375 56 
Q 42.328125 56 49.015625 48.375 
Q 55.71875 40.765625 55.71875 27.296875 
Q 55.71875 13.875 49.015625 6.21875 
Q 42.328125 -1.421875 30.609375 -1.421875 
Q 18.84375 -1.421875 12.171875 6.21875 
Q 5.515625 13.875 5.515625 27.296875 
Q 5.515625 40.765625 12.171875 48.375 
Q 18.84375 56 30.609375 56 
z
" id="DejaVuSans-111"/>
        <path d="M 18.3125 70.21875 
L 18.3125 54.6875 
L 36.8125 54.6875 
L 36.8125 47.703125 
L 18.3125 47.703125 
L 18.3125 18.015625 
Q 18.3125 11.328125 20.140625 9.421875 
Q 21.96875 7.515625 27.59375 7.515625 
L 36.8125 7.515625 
L 36.8125 0 
L 27.59375 0 
Q 17.1875 0 13.234375 3.875 
Q 9.28125 7.765625 9.28125 18.015625 
L 9.28125 47.703125 
L 2.6875 47.703125 
L 2.6875 54.6875 
L 9.28125 54.6875 
L 9.28125 70.21875 
z
" id="DejaVuSans-116"/>
        <path d="M 32.171875 -5.078125 
Q 28.375 -14.84375 24.75 -17.8125 
Q 21.140625 -20.796875 15.09375 -20.796875 
L 7.90625 -20.796875 
L 7.90625 -13.28125 
L 13.1875 -13.28125 
Q 16.890625 -13.28125 18.9375 -11.515625 
Q 21 -9.765625 23.484375 -3.21875 
L 25.09375 0.875 
L 2.984375 54.6875 
L 12.5 54.6875 
L 29.59375 11.921875 
L 46.6875 54.6875 
L 56.203125 54.6875 
z
" id="DejaVuSans-121"/>
        <path d="M 18.109375 8.203125 
L 18.109375 -20.796875 
L 9.078125 -20.796875 
L 9.078125 54.6875 
L 18.109375 54.6875 
L 18.109375 46.390625 
Q 20.953125 51.265625 25.265625 53.625 
Q 29.59375 56 35.59375 56 
Q 45.5625 56 51.78125 48.09375 
Q 58.015625 40.1875 58.015625 27.296875 
Q 58.015625 14.40625 51.78125 6.484375 
Q 45.5625 -1.421875 35.59375 -1.421875 
Q 29.59375 -1.421875 25.265625 0.953125 
Q 20.953125 3.328125 18.109375 8.203125 
z
M 48.6875 27.296875 
Q 48.6875 37.203125 44.609375 42.84375 
Q 40.53125 48.484375 33.40625 48.484375 
Q 26.265625 48.484375 22.1875 42.84375 
Q 18.109375 37.203125 18.109375 27.296875 
Q 18.109375 17.390625 22.1875 11.75 
Q 26.265625 6.109375 33.40625 6.109375 
Q 40.53125 6.109375 44.609375 11.75 
Q 48.6875 17.390625 48.6875 27.296875 
z
" id="DejaVuSans-112"/>
        <path d="M 56.203125 29.59375 
L 56.203125 25.203125 
L 14.890625 25.203125 
Q 15.484375 15.921875 20.484375 11.0625 
Q 25.484375 6.203125 34.421875 6.203125 
Q 39.59375 6.203125 44.453125 7.46875 
Q 49.3125 8.734375 54.109375 11.28125 
L 54.109375 2.78125 
Q 49.265625 0.734375 44.1875 -0.34375 
Q 39.109375 -1.421875 33.890625 -1.421875 
Q 20.796875 -1.421875 13.15625 6.1875 
Q 5.515625 13.8125 5.515625 26.8125 
Q 5.515625 40.234375 12.765625 48.109375 
Q 20.015625 56 32.328125 56 
Q 43.359375 56 49.78125 48.890625 
Q 56.203125 41.796875 56.203125 29.59375 
z
M 47.21875 32.234375 
Q 47.125 39.59375 43.09375 43.984375 
Q 39.0625 48.390625 32.421875 48.390625 
Q 24.90625 48.390625 20.390625 44.140625 
Q 15.875 39.890625 15.1875 32.171875 
z
" id="DejaVuSans-101"/>
       </defs>
       <use xlink:href="#DejaVuSans-80"/>
       <use x="58.552734" xlink:href="#DejaVuSans-114"/>
       <use x="97.416016" xlink:href="#DejaVuSans-111"/>
       <use x="158.597656" xlink:href="#DejaVuSans-116"/>
       <use x="197.806641" xlink:href="#DejaVuSans-111"/>
       <use x="258.988281" xlink:href="#DejaVuSans-116"/>
       <use x="298.197266" xlink:href="#DejaVuSans-121"/>
       <use x="357.376953" xlink:href="#DejaVuSans-112"/>
       <use x="420.853516" xlink:href="#DejaVuSans-101"/>
      </g>
     </g>
    </g>
    <g id="xtick_2">
     <g id="line2d_2">
      <g>
       <use style="stroke:#000000;stroke-width:0.8;" x="508.5" xlink:href="#me477b5e947" y="512.64"/>
      </g>
     </g>
     <g id="text_2">
      <!-- Optimized -->
      <g transform="translate(447.075 537.87625)scale(0.24 -0.24)">
       <defs>
        <path d="M 39.40625 66.21875 
Q 28.65625 66.21875 22.328125 58.203125 
Q 16.015625 50.203125 16.015625 36.375 
Q 16.015625 22.609375 22.328125 14.59375 
Q 28.65625 6.59375 39.40625 6.59375 
Q 50.140625 6.59375 56.421875 14.59375 
Q 62.703125 22.609375 62.703125 36.375 
Q 62.703125 50.203125 56.421875 58.203125 
Q 50.140625 66.21875 39.40625 66.21875 
z
M 39.40625 74.21875 
Q 54.734375 74.21875 63.90625 63.9375 
Q 73.09375 53.65625 73.09375 36.375 
Q 73.09375 19.140625 63.90625 8.859375 
Q 54.734375 -1.421875 39.40625 -1.421875 
Q 24.03125 -1.421875 14.8125 8.828125 
Q 5.609375 19.09375 5.609375 36.375 
Q 5.609375 53.65625 14.8125 63.9375 
Q 24.03125 74.21875 39.40625 74.21875 
z
" id="DejaVuSans-79"/>
        <path d="M 9.421875 54.6875 
L 18.40625 54.6875 
L 18.40625 0 
L 9.421875 0 
z
M 9.421875 75.984375 
L 18.40625 75.984375 
L 18.40625 64.59375 
L 9.421875 64.59375 
z
" id="DejaVuSans-105"/>
        <path d="M 52 44.1875 
Q 55.375 50.25 60.0625 53.125 
Q 64.75 56 71.09375 56 
Q 79.640625 56 84.28125 50.015625 
Q 88.921875 44.046875 88.921875 33.015625 
L 88.921875 0 
L 79.890625 0 
L 79.890625 32.71875 
Q 79.890625 40.578125 77.09375 44.375 
Q 74.3125 48.1875 68.609375 48.1875 
Q 61.625 48.1875 57.5625 43.546875 
Q 53.515625 38.921875 53.515625 30.90625 
L 53.515625 0 
L 44.484375 0 
L 44.484375 32.71875 
Q 44.484375 40.625 41.703125 44.40625 
Q 38.921875 48.1875 33.109375 48.1875 
Q 26.21875 48.1875 22.15625 43.53125 
Q 18.109375 38.875 18.109375 30.90625 
L 18.109375 0 
L 9.078125 0 
L 9.078125 54.6875 
L 18.109375 54.6875 
L 18.109375 46.1875 
Q 21.1875 51.21875 25.484375 53.609375 
Q 29.78125 56 35.6875 56 
Q 41.65625 56 45.828125 52.96875 
Q 50 49.953125 52 44.1875 
z
" id="DejaVuSans-109"/>
        <path d="M 5.515625 54.6875 
L 48.1875 54.6875 
L 48.1875 46.484375 
L 14.40625 7.171875 
L 48.1875 7.171875 
L 48.1875 0 
L 4.296875 0 
L 4.296875 8.203125 
L 38.09375 47.515625 
L 5.515625 47.515625 
z
" id="DejaVuSans-122"/>
        <path d="M 45.40625 46.390625 
L 45.40625 75.984375 
L 54.390625 75.984375 
L 54.390625 0 
L 45.40625 0 
L 45.40625 8.203125 
Q 42.578125 3.328125 38.25 0.953125 
Q 33.9375 -1.421875 27.875 -1.421875 
Q 17.96875 -1.421875 11.734375 6.484375 
Q 5.515625 14.40625 5.515625 27.296875 
Q 5.515625 40.1875 11.734375 48.09375 
Q 17.96875 56 27.875 56 
Q 33.9375 56 38.25 53.625 
Q 42.578125 51.265625 45.40625 46.390625 
z
M 14.796875 27.296875 
Q 14.796875 17.390625 18.875 11.75 
Q 22.953125 6.109375 30.078125 6.109375 
Q 37.203125 6.109375 41.296875 11.75 
Q 45.40625 17.390625 45.40625 27.296875 
Q 45.40625 37.203125 41.296875 42.84375 
Q 37.203125 48.484375 30.078125 48.484375 
Q 22.953125 48.484375 18.875 42.84375 
Q 14.796875 37.203125 14.796875 27.296875 
z
" id="DejaVuSans-100"/>
       </defs>
       <use xlink:href="#DejaVuSans-79"/>
       <use x="78.710938" xlink:href="#DejaVuSans-112"/>
       <use x="142.1875" xlink:href="#DejaVuSans-116"/>
       <use x="181.396484" xlink:href="#DejaVuSans-105"/>
       <use x="209.179688" xlink:href="#DejaVuSans-109"/>
       <use x="306.591797" xlink:href="#DejaVuSans-105"/>
       <use x="334.375" xlink:href="#DejaVuSans-122"/>
       <use x="386.865234" xlink:href="#DejaVuSans-101"/>
       <use x="448.388672" xlink:href="#DejaVuSans-100"/>
      </g>
     </g>
    </g>
   </g>
   <g id="matplotlib.axis_2">
    <g id="ytick_1">
     <g id="line2d_3">
      <defs>
       <path d="M 0 0 
L -3.5 0 
" id="mba50d0cd0b" style="stroke:#000000;stroke-width:0.8;"/>
      </defs>
      <g>
       <use style="stroke:#000000;stroke-width:0.8;" x="90" xlink:href="#mba50d0cd0b" y="484.138492"/>
      </g>
     </g>
     <g id="text_3">
      <!-- 0.0 -->
      <g transform="translate(44.8325 493.256617)scale(0.24 -0.24)">
       <defs>
        <path d="M 31.78125 66.40625 
Q 24.171875 66.40625 20.328125 58.90625 
Q 16.5 51.421875 16.5 36.375 
Q 16.5 21.390625 20.328125 13.890625 
Q 24.171875 6.390625 31.78125 6.390625 
Q 39.453125 6.390625 43.28125 13.890625 
Q 47.125 21.390625 47.125 36.375 
Q 47.125 51.421875 43.28125 58.90625 
Q 39.453125 66.40625 31.78125 66.40625 
z
M 31.78125 74.21875 
Q 44.046875 74.21875 50.515625 64.515625 
Q 56.984375 54.828125 56.984375 36.375 
Q 56.984375 17.96875 50.515625 8.265625 
Q 44.046875 -1.421875 31.78125 -1.421875 
Q 19.53125 -1.421875 13.0625 8.265625 
Q 6.59375 17.96875 6.59375 36.375 
Q 6.59375 54.828125 13.0625 64.515625 
Q 19.53125 74.21875 31.78125 74.21875 
z
" id="DejaVuSans-48"/>
        <path d="M 10.6875 12.40625 
L 21 12.40625 
L 21 0 
L 10.6875 0 
z
" id="DejaVuSans-46"/>
       </defs>
       <use xlink:href="#DejaVuSans-48"/>
       <use x="63.623047" xlink:href="#DejaVuSans-46"/>
       <use x="95.410156" xlink:href="#DejaVuSans-48"/>
      </g>
     </g>
    </g>
    <g id="ytick_2">
     <g id="line2d_4">
      <g>
       <use style="stroke:#000000;stroke-width:0.8;" x="90" xlink:href="#mba50d0cd0b" y="405.764165"/>
      </g>
     </g>
     <g id="text_4">
      <!-- 0.2 -->
      <g transform="translate(44.8325 414.88229)scale(0.24 -0.24)">
       <defs>
        <path d="M 19.1875 8.296875 
L 53.609375 8.296875 
L 53.609375 0 
L 7.328125 0 
L 7.328125 8.296875 
Q 12.9375 14.109375 22.625 23.890625 
Q 32.328125 33.6875 34.8125 36.53125 
Q 39.546875 41.84375 41.421875 45.53125 
Q 43.3125 49.21875 43.3125 52.78125 
Q 43.3125 58.59375 39.234375 62.25 
Q 35.15625 65.921875 28.609375 65.921875 
Q 23.96875 65.921875 18.8125 64.3125 
Q 13.671875 62.703125 7.8125 59.421875 
L 7.8125 69.390625 
Q 13.765625 71.78125 18.9375 73 
Q 24.125 74.21875 28.421875 74.21875 
Q 39.75 74.21875 46.484375 68.546875 
Q 53.21875 62.890625 53.21875 53.421875 
Q 53.21875 48.921875 51.53125 44.890625 
Q 49.859375 40.875 45.40625 35.40625 
Q 44.1875 33.984375 37.640625 27.21875 
Q 31.109375 20.453125 19.1875 8.296875 
z
" id="DejaVuSans-50"/>
       </defs>
       <use xlink:href="#DejaVuSans-48"/>
       <use x="63.623047" xlink:href="#DejaVuSans-46"/>
       <use x="95.410156" xlink:href="#DejaVuSans-50"/>
      </g>
     </g>
    </g>
    <g id="ytick_3">
     <g id="line2d_5">
      <g>
       <use style="stroke:#000000;stroke-width:0.8;" x="90" xlink:href="#mba50d0cd0b" y="327.389838"/>
      </g>
     </g>
     <g id="text_5">
      <!-- 0.4 -->
      <g transform="translate(44.8325 336.507963)scale(0.24 -0.24)">
       <defs>
        <path d="M 37.796875 64.3125 
L 12.890625 25.390625 
L 37.796875 25.390625 
z
M 35.203125 72.90625 
L 47.609375 72.90625 
L 47.609375 25.390625 
L 58.015625 25.390625 
L 58.015625 17.1875 
L 47.609375 17.1875 
L 47.609375 0 
L 37.796875 0 
L 37.796875 17.1875 
L 4.890625 17.1875 
L 4.890625 26.703125 
z
" id="DejaVuSans-52"/>
       </defs>
       <use xlink:href="#DejaVuSans-48"/>
       <use x="63.623047" xlink:href="#DejaVuSans-46"/>
       <use x="95.410156" xlink:href="#DejaVuSans-52"/>
      </g>
     </g>
    </g>
    <g id="ytick_4">
     <g id="line2d_6">
      <g>
       <use style="stroke:#000000;stroke-width:0.8;" x="90" xlink:href="#mba50d0cd0b" y="249.015511"/>
      </g>
     </g>
     <g id="text_6">
      <!-- 0.6 -->
      <g transform="translate(44.8325 258.133636)scale(0.24 -0.24)">
       <defs>
        <path d="M 33.015625 40.375 
Q 26.375 40.375 22.484375 35.828125 
Q 18.609375 31.296875 18.609375 23.390625 
Q 18.609375 15.53125 22.484375 10.953125 
Q 26.375 6.390625 33.015625 6.390625 
Q 39.65625 6.390625 43.53125 10.953125 
Q 47.40625 15.53125 47.40625 23.390625 
Q 47.40625 31.296875 43.53125 35.828125 
Q 39.65625 40.375 33.015625 40.375 
z
M 52.59375 71.296875 
L 52.59375 62.3125 
Q 48.875 64.0625 45.09375 64.984375 
Q 41.3125 65.921875 37.59375 65.921875 
Q 27.828125 65.921875 22.671875 59.328125 
Q 17.53125 52.734375 16.796875 39.40625 
Q 19.671875 43.65625 24.015625 45.921875 
Q 28.375 48.1875 33.59375 48.1875 
Q 44.578125 48.1875 50.953125 41.515625 
Q 57.328125 34.859375 57.328125 23.390625 
Q 57.328125 12.15625 50.6875 5.359375 
Q 44.046875 -1.421875 33.015625 -1.421875 
Q 20.359375 -1.421875 13.671875 8.265625 
Q 6.984375 17.96875 6.984375 36.375 
Q 6.984375 53.65625 15.1875 63.9375 
Q 23.390625 74.21875 37.203125 74.21875 
Q 40.921875 74.21875 44.703125 73.484375 
Q 48.484375 72.75 52.59375 71.296875 
z
" id="DejaVuSans-54"/>
       </defs>
       <use xlink:href="#DejaVuSans-48"/>
       <use x="63.623047" xlink:href="#DejaVuSans-46"/>
       <use x="95.410156" xlink:href="#DejaVuSans-54"/>
      </g>
     </g>
    </g>
    <g id="ytick_5">
     <g id="line2d_7">
      <g>
       <use style="stroke:#000000;stroke-width:0.8;" x="90" xlink:href="#mba50d0cd0b" y="170.641184"/>
      </g>
     </g>
     <g id="text_7">
      <!-- 0.8 -->
      <g transform="translate(44.8325 179.759309)scale(0.24 -0.24)">
       <defs>
        <path d="M 31.78125 34.625 
Q 24.75 34.625 20.71875 30.859375 
Q 16.703125 27.09375 16.703125 20.515625 
Q 16.703125 13.921875 20.71875 10.15625 
Q 24.75 6.390625 31.78125 6.390625 
Q 38.8125 6.390625 42.859375 10.171875 
Q 46.921875 13.96875 46.921875 20.515625 
Q 46.921875 27.09375 42.890625 30.859375 
Q 38.875 34.625 31.78125 34.625 
z
M 21.921875 38.8125 
Q 15.578125 40.375 12.03125 44.71875 
Q 8.5 49.078125 8.5 55.328125 
Q 8.5 64.0625 14.71875 69.140625 
Q 20.953125 74.21875 31.78125 74.21875 
Q 42.671875 74.21875 48.875 69.140625 
Q 55.078125 64.0625 55.078125 55.328125 
Q 55.078125 49.078125 51.53125 44.71875 
Q 48 40.375 41.703125 38.8125 
Q 48.828125 37.15625 52.796875 32.3125 
Q 56.78125 27.484375 56.78125 20.515625 
Q 56.78125 9.90625 50.3125 4.234375 
Q 43.84375 -1.421875 31.78125 -1.421875 
Q 19.734375 -1.421875 13.25 4.234375 
Q 6.78125 9.90625 6.78125 20.515625 
Q 6.78125 27.484375 10.78125 32.3125 
Q 14.796875 37.15625 21.921875 38.8125 
z
M 18.3125 54.390625 
Q 18.3125 48.734375 21.84375 45.5625 
Q 25.390625 42.390625 31.78125 42.390625 
Q 38.140625 42.390625 41.71875 45.5625 
Q 45.3125 48.734375 45.3125 54.390625 
Q 45.3125 60.0625 41.71875 63.234375 
Q 38.140625 66.40625 31.78125 66.40625 
Q 25.390625 66.40625 21.84375 63.234375 
Q 18.3125 60.0625 18.3125 54.390625 
z
" id="DejaVuSans-56"/>
       </defs>
       <use xlink:href="#DejaVuSans-48"/>
       <use x="63.623047" xlink:href="#DejaVuSans-46"/>
       <use x="95.410156" xlink:href="#DejaVuSans-56"/>
      </g>
     </g>
    </g>
    <g id="ytick_6">
     <g id="line2d_8">
      <g>
       <use style="stroke:#000000;stroke-width:0.8;" x="90" xlink:href="#mba50d0cd0b" y="92.266857"/>
      </g>
     </g>
     <g id="text_8">
      <!-- 1.0 -->
      <g transform="translate(44.8325 101.384982)scale(0.24 -0.24)">
       <defs>
        <path d="M 12.40625 8.296875 
L 28.515625 8.296875 
L 28.515625 63.921875 
L 10.984375 60.40625 
L 10.984375 69.390625 
L 28.421875 72.90625 
L 38.28125 72.90625 
L 38.28125 8.296875 
L 54.390625 8.296875 
L 54.390625 0 
L 12.40625 0 
z
" id="DejaVuSans-49"/>
       </defs>
       <use xlink:href="#DejaVuSans-49"/>
       <use x="63.623047" xlink:href="#DejaVuSans-46"/>
       <use x="95.410156" xlink:href="#DejaVuSans-48"/>
      </g>
     </g>
    </g>
    <g id="text_9">
     <!-- binding score -->
     <g transform="translate(35.009375 385.128438)rotate(-90)scale(0.28 -0.28)">
      <defs>
       <path d="M 48.6875 27.296875 
Q 48.6875 37.203125 44.609375 42.84375 
Q 40.53125 48.484375 33.40625 48.484375 
Q 26.265625 48.484375 22.1875 42.84375 
Q 18.109375 37.203125 18.109375 27.296875 
Q 18.109375 17.390625 22.1875 11.75 
Q 26.265625 6.109375 33.40625 6.109375 
Q 40.53125 6.109375 44.609375 11.75 
Q 48.6875 17.390625 48.6875 27.296875 
z
M 18.109375 46.390625 
Q 20.953125 51.265625 25.265625 53.625 
Q 29.59375 56 35.59375 56 
Q 45.5625 56 51.78125 48.09375 
Q 58.015625 40.1875 58.015625 27.296875 
Q 58.015625 14.40625 51.78125 6.484375 
Q 45.5625 -1.421875 35.59375 -1.421875 
Q 29.59375 -1.421875 25.265625 0.953125 
Q 20.953125 3.328125 18.109375 8.203125 
L 18.109375 0 
L 9.078125 0 
L 9.078125 75.984375 
L 18.109375 75.984375 
z
" id="DejaVuSans-98"/>
       <path d="M 54.890625 33.015625 
L 54.890625 0 
L 45.90625 0 
L 45.90625 32.71875 
Q 45.90625 40.484375 42.875 44.328125 
Q 39.84375 48.1875 33.796875 48.1875 
Q 26.515625 48.1875 22.3125 43.546875 
Q 18.109375 38.921875 18.109375 30.90625 
L 18.109375 0 
L 9.078125 0 
L 9.078125 54.6875 
L 18.109375 54.6875 
L 18.109375 46.1875 
Q 21.34375 51.125 25.703125 53.5625 
Q 30.078125 56 35.796875 56 
Q 45.21875 56 50.046875 50.171875 
Q 54.890625 44.34375 54.890625 33.015625 
z
" id="DejaVuSans-110"/>
       <path d="M 45.40625 27.984375 
Q 45.40625 37.75 41.375 43.109375 
Q 37.359375 48.484375 30.078125 48.484375 
Q 22.859375 48.484375 18.828125 43.109375 
Q 14.796875 37.75 14.796875 27.984375 
Q 14.796875 18.265625 18.828125 12.890625 
Q 22.859375 7.515625 30.078125 7.515625 
Q 37.359375 7.515625 41.375 12.890625 
Q 45.40625 18.265625 45.40625 27.984375 
z
M 54.390625 6.78125 
Q 54.390625 -7.171875 48.1875 -13.984375 
Q 42 -20.796875 29.203125 -20.796875 
Q 24.46875 -20.796875 20.265625 -20.09375 
Q 16.0625 -19.390625 12.109375 -17.921875 
L 12.109375 -9.1875 
Q 16.0625 -11.328125 19.921875 -12.34375 
Q 23.78125 -13.375 27.78125 -13.375 
Q 36.625 -13.375 41.015625 -8.765625 
Q 45.40625 -4.15625 45.40625 5.171875 
L 45.40625 9.625 
Q 42.625 4.78125 38.28125 2.390625 
Q 33.9375 0 27.875 0 
Q 17.828125 0 11.671875 7.65625 
Q 5.515625 15.328125 5.515625 27.984375 
Q 5.515625 40.671875 11.671875 48.328125 
Q 17.828125 56 27.875 56 
Q 33.9375 56 38.28125 53.609375 
Q 42.625 51.21875 45.40625 46.390625 
L 45.40625 54.6875 
L 54.390625 54.6875 
z
" id="DejaVuSans-103"/>
       <path id="DejaVuSans-32"/>
       <path d="M 44.28125 53.078125 
L 44.28125 44.578125 
Q 40.484375 46.53125 36.375 47.5 
Q 32.28125 48.484375 27.875 48.484375 
Q 21.1875 48.484375 17.84375 46.4375 
Q 14.5 44.390625 14.5 40.28125 
Q 14.5 37.15625 16.890625 35.375 
Q 19.28125 33.59375 26.515625 31.984375 
L 29.59375 31.296875 
Q 39.15625 29.25 43.1875 25.515625 
Q 47.21875 21.78125 47.21875 15.09375 
Q 47.21875 7.46875 41.1875 3.015625 
Q 35.15625 -1.421875 24.609375 -1.421875 
Q 20.21875 -1.421875 15.453125 -0.5625 
Q 10.6875 0.296875 5.421875 2 
L 5.421875 11.28125 
Q 10.40625 8.6875 15.234375 7.390625 
Q 20.0625 6.109375 24.8125 6.109375 
Q 31.15625 6.109375 34.5625 8.28125 
Q 37.984375 10.453125 37.984375 14.40625 
Q 37.984375 18.0625 35.515625 20.015625 
Q 33.0625 21.96875 24.703125 23.78125 
L 21.578125 24.515625 
Q 13.234375 26.265625 9.515625 29.90625 
Q 5.8125 33.546875 5.8125 39.890625 
Q 5.8125 47.609375 11.28125 51.796875 
Q 16.75 56 26.8125 56 
Q 31.78125 56 36.171875 55.265625 
Q 40.578125 54.546875 44.28125 53.078125 
z
" id="DejaVuSans-115"/>
       <path d="M 48.78125 52.59375 
L 48.78125 44.1875 
Q 44.96875 46.296875 41.140625 47.34375 
Q 37.3125 48.390625 33.40625 48.390625 
Q 24.65625 48.390625 19.8125 42.84375 
Q 14.984375 37.3125 14.984375 27.296875 
Q 14.984375 17.28125 19.8125 11.734375 
Q 24.65625 6.203125 33.40625 6.203125 
Q 37.3125 6.203125 41.140625 7.25 
Q 44.96875 8.296875 48.78125 10.40625 
L 48.78125 2.09375 
Q 45.015625 0.34375 40.984375 -0.53125 
Q 36.96875 -1.421875 32.421875 -1.421875 
Q 20.0625 -1.421875 12.78125 6.34375 
Q 5.515625 14.109375 5.515625 27.296875 
Q 5.515625 40.671875 12.859375 48.328125 
Q 20.21875 56 33.015625 56 
Q 37.15625 56 41.109375 55.140625 
Q 45.0625 54.296875 48.78125 52.59375 
z
" id="DejaVuSans-99"/>
      </defs>
      <use xlink:href="#DejaVuSans-98"/>
      <use x="63.476562" xlink:href="#DejaVuSans-105"/>
      <use x="91.259766" xlink:href="#DejaVuSans-110"/>
      <use x="154.638672" xlink:href="#DejaVuSans-100"/>
      <use x="218.115234" xlink:href="#DejaVuSans-105"/>
      <use x="245.898438" xlink:href="#DejaVuSans-110"/>
      <use x="309.277344" xlink:href="#DejaVuSans-103"/>
      <use x="372.753906" xlink:href="#DejaVuSans-32"/>
      <use x="404.541016" xlink:href="#DejaVuSans-115"/>
      <use x="456.640625" xlink:href="#DejaVuSans-99"/>
      <use x="511.621094" xlink:href="#DejaVuSans-111"/>
      <use x="572.802734" xlink:href="#DejaVuSans-114"/>
      <use x="611.666016" xlink:href="#DejaVuSans-101"/>
     </g>
    </g>
   </g>
   <g id="line2d_9">
    <path clip-path="url(#p975c61f394)" d="M 229.5 484.138492 
L 229.5 484.044548 
" style="fill:none;stroke:#666666;stroke-linecap:square;"/>
   </g>
   <g id="line2d_10">
    <path clip-path="url(#p975c61f394)" d="M 229.5 484.138478 
L 229.5 484.05968 
" style="fill:none;stroke:#666666;stroke-linecap:square;stroke-width:3;"/>
   </g>
   <g id="line2d_11">
    <path clip-path="url(#p975c61f394)" d="M 508.5 106.372396 
L 508.5 92.350079 
" style="fill:none;stroke:#666666;stroke-linecap:square;"/>
   </g>
   <g id="line2d_12">
    <path clip-path="url(#p975c61f394)" d="M 508.5 101.120275 
L 508.5 94.266271 
" style="fill:none;stroke:#666666;stroke-linecap:square;stroke-width:3;"/>
   </g>
   <g id="patch_3">
    <path d="M 90 512.64 
L 90 69.12 
" style="fill:none;stroke:#000000;stroke-linecap:square;stroke-linejoin:miter;stroke-width:0.8;"/>
   </g>
   <g id="patch_4">
    <path d="M 648 512.64 
L 648 69.12 
" style="fill:none;stroke:#000000;stroke-linecap:square;stroke-linejoin:miter;stroke-width:0.8;"/>
   </g>
   <g id="patch_5">
    <path d="M 90 512.64 
L 648 512.64 
" style="fill:none;stroke:#000000;stroke-linecap:square;stroke-linejoin:miter;stroke-width:0.8;"/>
   </g>
   <g id="patch_6">
    <path d="M 90 69.12 
L 648 69.12 
" style="fill:none;stroke:#000000;stroke-linecap:square;stroke-linejoin:miter;stroke-width:0.8;"/>
   </g>
   <g id="PathCollection_1">
    <defs>
     <path d="M 0 1 
C 0.265203 1 0.51958 0.894634 0.707107 0.707107 
C 0.894634 0.51958 1 0.265203 1 0 
C 1 -0.265203 0.894634 -0.51958 0.707107 -0.707107 
C 0.51958 -0.894634 0.265203 -1 0 -1 
C -0.265203 -1 -0.51958 -0.894634 -0.707107 -0.707107 
C -0.894634 -0.51958 -1 -0.265203 -1 0 
C -1 0.265203 -0.894634 0.51958 -0.707107 0.707107 
C -0.51958 0.894634 -0.265203 1 0 1 
z
" id="mdcb91a1e4a" style="stroke:#666666;"/>
    </defs>
    <g clip-path="url(#p975c61f394)">
     <use style="fill:#ffffff;stroke:#666666;" x="229.5" xlink:href="#mdcb91a1e4a" y="484.125792"/>
    </g>
   </g>
   <g id="PathCollection_2">
    <g clip-path="url(#p975c61f394)">
     <use style="fill:#ffffff;stroke:#666666;" x="508.5" xlink:href="#mdcb91a1e4a" y="95.541782"/>
    </g>
   </g>
  </g>
 </g>
 <defs>
  <clipPath id="p975c61f394">
   <rect height="443.52" width="558" x="90" y="69.12"/>
  </clipPath>
 </defs>
</svg>
