<?xml version="1.0" encoding="utf-8" standalone="no"?>
<!DOCTYPE svg PUBLIC "-//W3C//DTD SVG 1.1//EN"
  "http://www.w3.org/Graphics/SVG/1.1/DTD/svg11.dtd">
<!-- Created with matplotlib (https://matplotlib.org/) -->
<svg height="864pt" version="1.1" viewBox="0 0 1512 864" width="1512pt" xmlns="http://www.w3.org/2000/svg" xmlns:xlink="http://www.w3.org/1999/xlink">
 <metadata>
  <rdf:RDF xmlns:cc="http://creativecommons.org/ns#" xmlns:dc="http://purl.org/dc/elements/1.1/" xmlns:rdf="http://www.w3.org/1999/02/22-rdf-syntax-ns#">
   <cc:Work>
    <dc:type rdf:resource="http://purl.org/dc/dcmitype/StillImage"/>
    <dc:date>2024-07-12T09:50:22.979084</dc:date>
    <dc:format>image/svg+xml</dc:format>
    <dc:creator>
     <cc:Agent>
      <dc:title>Matplotlib v3.3.4, https://matplotlib.org/</dc:title>
     </cc:Agent>
    </dc:creator>
   </cc:Work>
  </rdf:RDF>
 </metadata>
 <defs>
  <style type="text/css">*{stroke-linecap:butt;stroke-linejoin:round;}</style>
 </defs>
 <g id="figure_1">
  <g id="patch_1">
   <path d="M 0 864 
L 1512 864 
L 1512 0 
L 0 0 
z
" style="fill:#ffffff;"/>
  </g>
  <g id="axes_1">
   <g id="patch_2">
    <path d="M 189 768.96 
L 1360.8 768.96 
L 1360.8 103.68 
L 189 103.68 
z
" style="fill:#ffffff;"/>
   </g>
   <g id="matplotlib.axis_1">
    <g id="xtick_1">
     <g id="line2d_1">
      <path clip-path="url(#p0fbe16eedb)" d="M 308.3572 768.96 
L 308.3572 103.68 
" style="fill:none;stroke:#f2f2f2;stroke-linecap:round;stroke-width:0.8;"/>
     </g>
     <g id="line2d_2">
      <defs>
       <path d="M 0 0 
L 0 3.5 
" id="m8fbdb4c1da" style="stroke:#262626;stroke-width:0.8;"/>
      </defs>
      <g>
       <use style="fill:#262626;stroke:#262626;stroke-width:0.8;" x="308.3572" xlink:href="#m8fbdb4c1da" y="768.96"/>
      </g>
     </g>
    </g>
    <g id="xtick_2">
     <g id="line2d_3">
      <path clip-path="url(#p0fbe16eedb)" d="M 463.871466 768.96 
L 463.871466 103.68 
" style="fill:none;stroke:#f2f2f2;stroke-linecap:round;stroke-width:0.8;"/>
     </g>
     <g id="line2d_4">
      <g>
       <use style="fill:#262626;stroke:#262626;stroke-width:0.8;" x="463.871466" xlink:href="#m8fbdb4c1da" y="768.96"/>
      </g>
     </g>
    </g>
    <g id="xtick_3">
     <g id="line2d_5">
      <path clip-path="url(#p0fbe16eedb)" d="M 619.385733 768.96 
L 619.385733 103.68 
" style="fill:none;stroke:#f2f2f2;stroke-linecap:round;stroke-width:0.8;"/>
     </g>
     <g id="line2d_6">
      <g>
       <use style="fill:#262626;stroke:#262626;stroke-width:0.8;" x="619.385733" xlink:href="#m8fbdb4c1da" y="768.96"/>
      </g>
     </g>
    </g>
    <g id="xtick_4">
     <g id="line2d_7">
      <path clip-path="url(#p0fbe16eedb)" d="M 774.9 768.96 
L 774.9 103.68 
" style="fill:none;stroke:#f2f2f2;stroke-linecap:round;stroke-width:0.8;"/>
     </g>
     <g id="line2d_8">
      <g>
       <use style="fill:#262626;stroke:#262626;stroke-width:0.8;" x="774.9" xlink:href="#m8fbdb4c1da" y="768.96"/>
      </g>
     </g>
    </g>
    <g id="xtick_5">
     <g id="line2d_9">
      <path clip-path="url(#p0fbe16eedb)" d="M 930.414267 768.96 
L 930.414267 103.68 
" style="fill:none;stroke:#f2f2f2;stroke-linecap:round;stroke-width:0.8;"/>
     </g>
     <g id="line2d_10">
      <g>
       <use style="fill:#262626;stroke:#262626;stroke-width:0.8;" x="930.414267" xlink:href="#m8fbdb4c1da" y="768.96"/>
      </g>
     </g>
    </g>
    <g id="xtick_6">
     <g id="line2d_11">
      <path clip-path="url(#p0fbe16eedb)" d="M 1085.928534 768.96 
L 1085.928534 103.68 
" style="fill:none;stroke:#f2f2f2;stroke-linecap:round;stroke-width:0.8;"/>
     </g>
     <g id="line2d_12">
      <g>
       <use style="fill:#262626;stroke:#262626;stroke-width:0.8;" x="1085.928534" xlink:href="#m8fbdb4c1da" y="768.96"/>
      </g>
     </g>
    </g>
    <g id="xtick_7">
     <g id="line2d_13">
      <path clip-path="url(#p0fbe16eedb)" d="M 1241.4428 768.96 
L 1241.4428 103.68 
" style="fill:none;stroke:#f2f2f2;stroke-linecap:round;stroke-width:0.8;"/>
     </g>
     <g id="line2d_14">
      <g>
       <use style="fill:#262626;stroke:#262626;stroke-width:0.8;" x="1241.4428" xlink:href="#m8fbdb4c1da" y="768.96"/>
      </g>
     </g>
    </g>
   </g>
   <g id="matplotlib.axis_2">
    <g id="ytick_1">
     <g id="line2d_15">
      <path clip-path="url(#p0fbe16eedb)" d="M 189 742.919048 
L 1360.8 742.919048 
" style="fill:none;stroke:#f2f2f2;stroke-linecap:round;stroke-width:0.8;"/>
     </g>
     <g id="text_1">
      <!-- 0.80 -->
      <g style="fill:#262626;" transform="translate(70.671875 761.915142)scale(0.5 -0.5)">
       <defs>
        <path d="M 31.78125 66.40625 
Q 24.171875 66.40625 20.328125 58.90625 
Q 16.5 51.421875 16.5 36.375 
Q 16.5 21.390625 20.328125 13.890625 
Q 24.171875 6.390625 31.78125 6.390625 
Q 39.453125 6.390625 43.28125 13.890625 
Q 47.125 21.390625 47.125 36.375 
Q 47.125 51.421875 43.28125 58.90625 
Q 39.453125 66.40625 31.78125 66.40625 
z
M 31.78125 74.21875 
Q 44.046875 74.21875 50.515625 64.515625 
Q 56.984375 54.828125 56.984375 36.375 
Q 56.984375 17.96875 50.515625 8.265625 
Q 44.046875 -1.421875 31.78125 -1.421875 
Q 19.53125 -1.421875 13.0625 8.265625 
Q 6.59375 17.96875 6.59375 36.375 
Q 6.59375 54.828125 13.0625 64.515625 
Q 19.53125 74.21875 31.78125 74.21875 
z
" id="DejaVuSans-48"/>
        <path d="M 10.6875 12.40625 
L 21 12.40625 
L 21 0 
L 10.6875 0 
z
" id="DejaVuSans-46"/>
        <path d="M 31.78125 34.625 
Q 24.75 34.625 20.71875 30.859375 
Q 16.703125 27.09375 16.703125 20.515625 
Q 16.703125 13.921875 20.71875 10.15625 
Q 24.75 6.390625 31.78125 6.390625 
Q 38.8125 6.390625 42.859375 10.171875 
Q 46.921875 13.96875 46.921875 20.515625 
Q 46.921875 27.09375 42.890625 30.859375 
Q 38.875 34.625 31.78125 34.625 
z
M 21.921875 38.8125 
Q 15.578125 40.375 12.03125 44.71875 
Q 8.5 49.078125 8.5 55.328125 
Q 8.5 64.0625 14.71875 69.140625 
Q 20.953125 74.21875 31.78125 74.21875 
Q 42.671875 74.21875 48.875 69.140625 
Q 55.078125 64.0625 55.078125 55.328125 
Q 55.078125 49.078125 51.53125 44.71875 
Q 48 40.375 41.703125 38.8125 
Q 48.828125 37.15625 52.796875 32.3125 
Q 56.78125 27.484375 56.78125 20.515625 
Q 56.78125 9.90625 50.3125 4.234375 
Q 43.84375 -1.421875 31.78125 -1.421875 
Q 19.734375 -1.421875 13.25 4.234375 
Q 6.78125 9.90625 6.78125 20.515625 
Q 6.78125 27.484375 10.78125 32.3125 
Q 14.796875 37.15625 21.921875 38.8125 
z
M 18.3125 54.390625 
Q 18.3125 48.734375 21.84375 45.5625 
Q 25.390625 42.390625 31.78125 42.390625 
Q 38.140625 42.390625 41.71875 45.5625 
Q 45.3125 48.734375 45.3125 54.390625 
Q 45.3125 60.0625 41.71875 63.234375 
Q 38.140625 66.40625 31.78125 66.40625 
Q 25.390625 66.40625 21.84375 63.234375 
Q 18.3125 60.0625 18.3125 54.390625 
z
" id="DejaVuSans-56"/>
       </defs>
       <use xlink:href="#DejaVuSans-48"/>
       <use x="63.623047" xlink:href="#DejaVuSans-46"/>
       <use x="95.410156" xlink:href="#DejaVuSans-56"/>
       <use x="159.033203" xlink:href="#DejaVuSans-48"/>
      </g>
     </g>
    </g>
    <g id="ytick_2">
     <g id="line2d_16">
      <path clip-path="url(#p0fbe16eedb)" d="M 189 590.669286 
L 1360.8 590.669286 
" style="fill:none;stroke:#f2f2f2;stroke-linecap:round;stroke-width:0.8;"/>
     </g>
     <g id="text_2">
      <!-- 0.85 -->
      <g style="fill:#262626;" transform="translate(70.671875 609.66538)scale(0.5 -0.5)">
       <defs>
        <path d="M 10.796875 72.90625 
L 49.515625 72.90625 
L 49.515625 64.59375 
L 19.828125 64.59375 
L 19.828125 46.734375 
Q 21.96875 47.46875 24.109375 47.828125 
Q 26.265625 48.1875 28.421875 48.1875 
Q 40.625 48.1875 47.75 41.5 
Q 54.890625 34.8125 54.890625 23.390625 
Q 54.890625 11.625 47.5625 5.09375 
Q 40.234375 -1.421875 26.90625 -1.421875 
Q 22.3125 -1.421875 17.546875 -0.640625 
Q 12.796875 0.140625 7.71875 1.703125 
L 7.71875 11.625 
Q 12.109375 9.234375 16.796875 8.0625 
Q 21.484375 6.890625 26.703125 6.890625 
Q 35.15625 6.890625 40.078125 11.328125 
Q 45.015625 15.765625 45.015625 23.390625 
Q 45.015625 31 40.078125 35.4375 
Q 35.15625 39.890625 26.703125 39.890625 
Q 22.75 39.890625 18.8125 39.015625 
Q 14.890625 38.140625 10.796875 36.28125 
z
" id="DejaVuSans-53"/>
       </defs>
       <use xlink:href="#DejaVuSans-48"/>
       <use x="63.623047" xlink:href="#DejaVuSans-46"/>
       <use x="95.410156" xlink:href="#DejaVuSans-56"/>
       <use x="159.033203" xlink:href="#DejaVuSans-53"/>
      </g>
     </g>
    </g>
    <g id="ytick_3">
     <g id="line2d_17">
      <path clip-path="url(#p0fbe16eedb)" d="M 189 438.419524 
L 1360.8 438.419524 
" style="fill:none;stroke:#f2f2f2;stroke-linecap:round;stroke-width:0.8;"/>
     </g>
     <g id="text_3">
      <!-- 0.90 -->
      <g style="fill:#262626;" transform="translate(70.671875 457.415618)scale(0.5 -0.5)">
       <defs>
        <path d="M 10.984375 1.515625 
L 10.984375 10.5 
Q 14.703125 8.734375 18.5 7.8125 
Q 22.3125 6.890625 25.984375 6.890625 
Q 35.75 6.890625 40.890625 13.453125 
Q 46.046875 20.015625 46.78125 33.40625 
Q 43.953125 29.203125 39.59375 26.953125 
Q 35.25 24.703125 29.984375 24.703125 
Q 19.046875 24.703125 12.671875 31.3125 
Q 6.296875 37.9375 6.296875 49.421875 
Q 6.296875 60.640625 12.9375 67.421875 
Q 19.578125 74.21875 30.609375 74.21875 
Q 43.265625 74.21875 49.921875 64.515625 
Q 56.59375 54.828125 56.59375 36.375 
Q 56.59375 19.140625 48.40625 8.859375 
Q 40.234375 -1.421875 26.421875 -1.421875 
Q 22.703125 -1.421875 18.890625 -0.6875 
Q 15.09375 0.046875 10.984375 1.515625 
z
M 30.609375 32.421875 
Q 37.25 32.421875 41.125 36.953125 
Q 45.015625 41.5 45.015625 49.421875 
Q 45.015625 57.28125 41.125 61.84375 
Q 37.25 66.40625 30.609375 66.40625 
Q 23.96875 66.40625 20.09375 61.84375 
Q 16.21875 57.28125 16.21875 49.421875 
Q 16.21875 41.5 20.09375 36.953125 
Q 23.96875 32.421875 30.609375 32.421875 
z
" id="DejaVuSans-57"/>
       </defs>
       <use xlink:href="#DejaVuSans-48"/>
       <use x="63.623047" xlink:href="#DejaVuSans-46"/>
       <use x="95.410156" xlink:href="#DejaVuSans-57"/>
       <use x="159.033203" xlink:href="#DejaVuSans-48"/>
      </g>
     </g>
    </g>
    <g id="ytick_4">
     <g id="line2d_18">
      <path clip-path="url(#p0fbe16eedb)" d="M 189 286.169762 
L 1360.8 286.169762 
" style="fill:none;stroke:#f2f2f2;stroke-linecap:round;stroke-width:0.8;"/>
     </g>
     <g id="text_4">
      <!-- 0.95 -->
      <g style="fill:#262626;" transform="translate(70.671875 305.165856)scale(0.5 -0.5)">
       <use xlink:href="#DejaVuSans-48"/>
       <use x="63.623047" xlink:href="#DejaVuSans-46"/>
       <use x="95.410156" xlink:href="#DejaVuSans-57"/>
       <use x="159.033203" xlink:href="#DejaVuSans-53"/>
      </g>
     </g>
    </g>
    <g id="ytick_5">
     <g id="line2d_19">
      <path clip-path="url(#p0fbe16eedb)" d="M 189 133.92 
L 1360.8 133.92 
" style="fill:none;stroke:#f2f2f2;stroke-linecap:round;stroke-width:0.8;"/>
     </g>
     <g id="text_5">
      <!-- 1.00 -->
      <g style="fill:#262626;" transform="translate(70.671875 152.916094)scale(0.5 -0.5)">
       <defs>
        <path d="M 12.40625 8.296875 
L 28.515625 8.296875 
L 28.515625 63.921875 
L 10.984375 60.40625 
L 10.984375 69.390625 
L 28.421875 72.90625 
L 38.28125 72.90625 
L 38.28125 8.296875 
L 54.390625 8.296875 
L 54.390625 0 
L 12.40625 0 
z
" id="DejaVuSans-49"/>
       </defs>
       <use xlink:href="#DejaVuSans-49"/>
       <use x="63.623047" xlink:href="#DejaVuSans-46"/>
       <use x="95.410156" xlink:href="#DejaVuSans-48"/>
       <use x="159.033203" xlink:href="#DejaVuSans-48"/>
      </g>
     </g>
    </g>
    <g id="text_6">
     <!-- $P_{AMP}$ -->
     <g style="fill:#262626;" transform="translate(55.233594 495.17)rotate(-90)scale(0.55 -0.55)">
      <defs>
       <path d="M 16.890625 72.90625 
L 39.703125 72.90625 
Q 49.65625 72.90625 54.875 68.265625 
Q 60.109375 63.625 60.109375 54.6875 
Q 60.109375 42.671875 52.390625 35.984375 
Q 44.671875 29.296875 30.71875 29.296875 
L 18.3125 29.296875 
L 12.59375 0 
L 2.6875 0 
z
M 25.203125 64.796875 
L 19.921875 37.40625 
L 32.328125 37.40625 
Q 40.71875 37.40625 45.203125 41.703125 
Q 49.703125 46 49.703125 54 
Q 49.703125 59.125 46.65625 61.953125 
Q 43.609375 64.796875 38.09375 64.796875 
z
" id="DejaVuSans-Oblique-80"/>
       <path d="M 36.8125 72.90625 
L 48 72.90625 
L 61.53125 0 
L 51.21875 0 
L 48.1875 18.703125 
L 15.375 18.703125 
L 5.078125 0 
L -5.328125 0 
z
M 40.375 63.1875 
L 19.921875 26.90625 
L 46.6875 26.90625 
z
" id="DejaVuSans-Oblique-65"/>
       <path d="M 16.890625 72.90625 
L 31.6875 72.90625 
L 40.1875 23.78125 
L 68.40625 72.90625 
L 83.59375 72.90625 
L 69.390625 0 
L 59.8125 0 
L 72.21875 63.921875 
L 43.609375 14.015625 
L 33.984375 14.015625 
L 24.703125 64.109375 
L 12.3125 0 
L 2.6875 0 
z
" id="DejaVuSans-Oblique-77"/>
      </defs>
      <use transform="translate(0 0.09375)" xlink:href="#DejaVuSans-Oblique-80"/>
      <use transform="translate(60.302734 -16.3125)scale(0.7)" xlink:href="#DejaVuSans-Oblique-65"/>
      <use transform="translate(108.188477 -16.3125)scale(0.7)" xlink:href="#DejaVuSans-Oblique-77"/>
      <use transform="translate(168.583984 -16.3125)scale(0.7)" xlink:href="#DejaVuSans-Oblique-80"/>
     </g>
    </g>
   </g>
   <g id="PolyCollection_1">
    <defs>
     <path d="M 308.375389 -125.28 
L 308.339011 -125.28 
L 308.33443 -131.389091 
L 308.3304 -137.498182 
L 308.327684 -143.607273 
L 308.326484 -149.716364 
L 308.322547 -155.825455 
L 308.311833 -161.934545 
L 308.295371 -168.043636 
L 308.274681 -174.152727 
L 308.252787 -180.261818 
L 308.24152 -186.370909 
L 308.25121 -192.48 
L 308.275202 -198.589091 
L 308.297904 -204.698182 
L 308.311282 -210.807273 
L 308.317549 -216.916364 
L 308.322207 -223.025455 
L 308.327627 -229.134545 
L 308.332482 -235.243636 
L 308.334316 -241.352727 
L 308.331597 -247.461818 
L 308.325355 -253.570909 
L 308.317652 -259.68 
L 308.306942 -265.789091 
L 308.287585 -271.898182 
L 308.25972 -278.007273 
L 308.236558 -284.116364 
L 308.230421 -290.225455 
L 308.236911 -296.334545 
L 308.246187 -302.443636 
L 308.259405 -308.552727 
L 308.278799 -314.661818 
L 308.293327 -320.770909 
L 308.290653 -326.88 
L 308.276472 -332.989091 
L 308.267577 -339.098182 
L 308.269021 -345.207273 
L 308.272875 -351.316364 
L 308.274356 -357.425455 
L 308.273928 -363.534545 
L 308.273549 -369.643636 
L 308.278718 -375.752727 
L 308.292188 -381.861818 
L 308.307219 -387.970909 
L 308.315086 -394.08 
L 308.314705 -400.189091 
L 308.311252 -406.298182 
L 308.306981 -412.407273 
L 308.295999 -418.516364 
L 308.271803 -424.625455 
L 308.238015 -430.734545 
L 308.205324 -436.843636 
L 308.18301 -442.952727 
L 308.178895 -449.061818 
L 308.194057 -455.170909 
L 308.215871 -461.28 
L 308.230795 -467.389091 
L 308.237784 -473.498182 
L 308.242274 -479.607273 
L 308.246782 -485.716364 
L 308.24957 -491.825455 
L 308.247022 -497.934545 
L 308.235594 -504.043636 
L 308.215422 -510.152727 
L 308.19289 -516.261818 
L 308.174116 -522.370909 
L 308.160885 -528.48 
L 308.156358 -534.589091 
L 308.161849 -540.698182 
L 308.170737 -546.807273 
L 308.178463 -552.916364 
L 308.186614 -559.025455 
L 308.188818 -565.134545 
L 308.173989 -571.243636 
L 308.149032 -577.352727 
L 308.132608 -583.461818 
L 308.126498 -589.570909 
L 308.114506 -595.68 
L 308.082982 -601.789091 
L 308.032848 -607.898182 
L 307.98172 -614.007273 
L 307.948993 -620.116364 
L 307.931213 -626.225455 
L 307.909168 -632.334545 
L 307.877208 -638.443636 
L 307.844526 -644.552727 
L 307.813671 -650.661818 
L 307.777141 -656.770909 
L 307.737458 -662.88 
L 307.709234 -668.989091 
L 307.685789 -675.098182 
L 307.625271 -681.207273 
L 307.473984 -687.316364 
L 307.128034 -693.425455 
L 306.121626 -699.534545 
L 302.707599 -705.643636 
L 292.948676 -711.752727 
L 273.687059 -717.861818 
L 251.232148 -723.970909 
L 242.263636 -730.08 
L 374.450763 -730.08 
L 374.450763 -730.08 
L 365.482251 -723.970909 
L 343.02734 -717.861818 
L 323.765724 -711.752727 
L 314.006801 -705.643636 
L 310.592773 -699.534545 
L 309.586366 -693.425455 
L 309.240415 -687.316364 
L 309.089129 -681.207273 
L 309.028611 -675.098182 
L 309.005166 -668.989091 
L 308.976941 -662.88 
L 308.937259 -656.770909 
L 308.900728 -650.661818 
L 308.869873 -644.552727 
L 308.837191 -638.443636 
L 308.805231 -632.334545 
L 308.783186 -626.225455 
L 308.765406 -620.116364 
L 308.73268 -614.007273 
L 308.681551 -607.898182 
L 308.631417 -601.789091 
L 308.599894 -595.68 
L 308.587901 -589.570909 
L 308.581792 -583.461818 
L 308.565367 -577.352727 
L 308.54041 -571.243636 
L 308.525581 -565.134545 
L 308.527786 -559.025455 
L 308.535937 -552.916364 
L 308.543662 -546.807273 
L 308.55255 -540.698182 
L 308.558041 -534.589091 
L 308.553514 -528.48 
L 308.540283 -522.370909 
L 308.52151 -516.261818 
L 308.498978 -510.152727 
L 308.478806 -504.043636 
L 308.467378 -497.934545 
L 308.464829 -491.825455 
L 308.467617 -485.716364 
L 308.472126 -479.607273 
L 308.476615 -473.498182 
L 308.483605 -467.389091 
L 308.498528 -461.28 
L 308.520342 -455.170909 
L 308.535505 -449.061818 
L 308.531389 -442.952727 
L 308.509076 -436.843636 
L 308.476384 -430.734545 
L 308.442596 -424.625455 
L 308.418401 -418.516364 
L 308.407418 -412.407273 
L 308.403148 -406.298182 
L 308.399695 -400.189091 
L 308.399314 -394.08 
L 308.40718 -387.970909 
L 308.422212 -381.861818 
L 308.435682 -375.752727 
L 308.440851 -369.643636 
L 308.440472 -363.534545 
L 308.440044 -357.425455 
L 308.441525 -351.316364 
L 308.445378 -345.207273 
L 308.446822 -339.098182 
L 308.437928 -332.989091 
L 308.423747 -326.88 
L 308.421072 -320.770909 
L 308.4356 -314.661818 
L 308.454994 -308.552727 
L 308.468212 -302.443636 
L 308.477489 -296.334545 
L 308.483979 -290.225455 
L 308.477842 -284.116364 
L 308.45468 -278.007273 
L 308.426814 -271.898182 
L 308.407457 -265.789091 
L 308.396747 -259.68 
L 308.389045 -253.570909 
L 308.382803 -247.461818 
L 308.380084 -241.352727 
L 308.381918 -235.243636 
L 308.386773 -229.134545 
L 308.392192 -223.025455 
L 308.396851 -216.916364 
L 308.403117 -210.807273 
L 308.416496 -204.698182 
L 308.439198 -198.589091 
L 308.46319 -192.48 
L 308.472879 -186.370909 
L 308.461613 -180.261818 
L 308.439719 -174.152727 
L 308.419028 -168.043636 
L 308.402566 -161.934545 
L 308.391853 -155.825455 
L 308.387915 -149.716364 
L 308.386715 -143.607273 
L 308.383999 -137.498182 
L 308.37997 -131.389091 
L 308.375389 -125.28 
z
" id="ma23cdab8d8"/>
    </defs>
    <g clip-path="url(#p0fbe16eedb)">
     <use style="fill:#ffd23f;" x="0" xlink:href="#ma23cdab8d8" y="864"/>
    </g>
   </g>
   <g id="PolyCollection_2">
    <defs>
     <path d="M 463.87296 -343.087631 
L 463.869973 -343.087631 
L 463.871466 -346.996645 
L 463.871466 -350.905659 
L 463.871466 -354.814672 
L 463.871466 -358.723686 
L 463.871466 -362.6327 
L 463.869989 -366.541714 
L 463.871466 -370.450728 
L 463.871466 -374.359742 
L 463.871466 -378.268755 
L 463.871466 -382.177769 
L 463.871466 -386.086783 
L 463.871466 -389.995797 
L 463.871466 -393.904811 
L 463.871466 -397.813825 
L 463.871466 -401.722838 
L 463.871466 -405.631852 
L 463.871466 -409.540866 
L 463.871466 -413.44988 
L 463.871466 -417.358894 
L 463.871466 -421.267908 
L 463.871466 -425.176921 
L 463.871466 -429.085935 
L 463.871466 -432.994949 
L 463.871466 -436.903963 
L 463.871466 -440.812977 
L 463.871466 -444.721991 
L 463.871466 -448.631004 
L 463.871466 -452.540018 
L 463.871466 -456.449032 
L 463.871466 -460.358046 
L 463.871466 -464.26706 
L 463.871466 -468.176073 
L 463.870507 -472.085087 
L 463.871466 -475.994101 
L 463.871064 -479.903115 
L 463.871466 -483.812129 
L 463.871464 -487.721143 
L 463.871393 -491.630156 
L 463.871466 -495.53917 
L 463.87047 -499.448184 
L 463.871466 -503.357198 
L 463.871466 -507.266212 
L 463.871466 -511.175226 
L 463.871466 -515.084239 
L 463.871466 -518.993253 
L 463.871466 -522.902267 
L 463.871466 -526.811281 
L 463.871466 -530.720295 
L 463.871466 -534.629309 
L 463.870006 -538.538322 
L 463.870366 -542.447336 
L 463.869079 -546.35635 
L 463.871465 -550.265364 
L 463.871382 -554.174378 
L 463.871043 -558.083392 
L 463.869987 -561.992405 
L 463.871466 -565.901419 
L 463.871466 -569.810433 
L 463.871466 -573.719447 
L 463.871466 -577.628461 
L 463.871466 -581.537475 
L 463.870332 -585.446488 
L 463.871466 -589.355502 
L 463.871466 -593.264516 
L 463.871466 -597.17353 
L 463.871466 -601.082544 
L 463.871464 -604.991557 
L 463.870855 -608.900571 
L 463.871215 -612.809585 
L 463.870164 -616.718599 
L 463.871435 -620.627613 
L 463.87031 -624.536627 
L 463.871286 -628.44564 
L 463.871444 -632.354654 
L 463.870562 -636.263668 
L 463.870112 -640.172682 
L 463.871466 -644.081696 
L 463.866715 -647.99071 
L 463.869029 -651.899723 
L 463.869288 -655.808737 
L 463.867528 -659.717751 
L 463.870187 -663.626765 
L 463.869658 -667.535779 
L 463.868328 -671.444793 
L 463.867346 -675.353806 
L 463.869414 -679.26282 
L 463.867163 -683.171834 
L 463.862604 -687.080848 
L 463.868604 -690.989862 
L 463.861492 -694.898876 
L 463.866971 -698.807889 
L 463.858476 -702.716903 
L 463.859826 -706.625917 
L 463.856693 -710.534931 
L 463.846972 -714.443945 
L 463.813053 -718.352959 
L 463.793733 -722.261972 
L 463.622851 -726.170986 
L 397.777903 -730.08 
L 529.96503 -730.08 
L 529.96503 -730.08 
L 464.120082 -726.170986 
L 463.9492 -722.261972 
L 463.92988 -718.352959 
L 463.895961 -714.443945 
L 463.88624 -710.534931 
L 463.883107 -706.625917 
L 463.884457 -702.716903 
L 463.875962 -698.807889 
L 463.881441 -694.898876 
L 463.874329 -690.989862 
L 463.880329 -687.080848 
L 463.87577 -683.171834 
L 463.873519 -679.26282 
L 463.875587 -675.353806 
L 463.874605 -671.444793 
L 463.873275 -667.535779 
L 463.872746 -663.626765 
L 463.875405 -659.717751 
L 463.873645 -655.808737 
L 463.873904 -651.899723 
L 463.876218 -647.99071 
L 463.871467 -644.081696 
L 463.872821 -640.172682 
L 463.872371 -636.263668 
L 463.871489 -632.354654 
L 463.871647 -628.44564 
L 463.872623 -624.536627 
L 463.871498 -620.627613 
L 463.872769 -616.718599 
L 463.871718 -612.809585 
L 463.872078 -608.900571 
L 463.871469 -604.991557 
L 463.871466 -601.082544 
L 463.871466 -597.17353 
L 463.871466 -593.264516 
L 463.871466 -589.355502 
L 463.872601 -585.446488 
L 463.871466 -581.537475 
L 463.871466 -577.628461 
L 463.871466 -573.719447 
L 463.871466 -569.810433 
L 463.871466 -565.901419 
L 463.872946 -561.992405 
L 463.87189 -558.083392 
L 463.871551 -554.174378 
L 463.871468 -550.265364 
L 463.873854 -546.35635 
L 463.872567 -542.447336 
L 463.872927 -538.538322 
L 463.871466 -534.629309 
L 463.871466 -530.720295 
L 463.871466 -526.811281 
L 463.871466 -522.902267 
L 463.871466 -518.993253 
L 463.871466 -515.084239 
L 463.871466 -511.175226 
L 463.871466 -507.266212 
L 463.871467 -503.357198 
L 463.872463 -499.448184 
L 463.871467 -495.53917 
L 463.87154 -491.630156 
L 463.871469 -487.721143 
L 463.871467 -483.812129 
L 463.871869 -479.903115 
L 463.871466 -475.994101 
L 463.872426 -472.085087 
L 463.871466 -468.176073 
L 463.871466 -464.26706 
L 463.871466 -460.358046 
L 463.871466 -456.449032 
L 463.871466 -452.540018 
L 463.871466 -448.631004 
L 463.871466 -444.721991 
L 463.871466 -440.812977 
L 463.871466 -436.903963 
L 463.871466 -432.994949 
L 463.871466 -429.085935 
L 463.871466 -425.176921 
L 463.871466 -421.267908 
L 463.871466 -417.358894 
L 463.871466 -413.44988 
L 463.871466 -409.540866 
L 463.871466 -405.631852 
L 463.871466 -401.722838 
L 463.871466 -397.813825 
L 463.871466 -393.904811 
L 463.871466 -389.995797 
L 463.871466 -386.086783 
L 463.871466 -382.177769 
L 463.871466 -378.268755 
L 463.871466 -374.359742 
L 463.871466 -370.450728 
L 463.872944 -366.541714 
L 463.871466 -362.6327 
L 463.871466 -358.723686 
L 463.871466 -354.814672 
L 463.871466 -350.905659 
L 463.871466 -346.996645 
L 463.87296 -343.087631 
z
" id="mc795ca839f"/>
    </defs>
    <g clip-path="url(#p0fbe16eedb)">
     <use style="fill:#af55ff;" x="0" xlink:href="#mc795ca839f" y="864"/>
    </g>
   </g>
   <g id="PolyCollection_3">
    <defs>
     <path d="M 619.386964 -148.995596 
L 619.384502 -148.995596 
L 619.385733 -154.865135 
L 619.385733 -160.734674 
L 619.385733 -166.604214 
L 619.385733 -172.473753 
L 619.385733 -178.343293 
L 619.385733 -184.212832 
L 619.385733 -190.082372 
L 619.385733 -195.951911 
L 619.385733 -201.821451 
L 619.385733 -207.69099 
L 619.385733 -213.560529 
L 619.385733 -219.430069 
L 619.38455 -225.299608 
L 619.385731 -231.169148 
L 619.385733 -237.038687 
L 619.385733 -242.908227 
L 619.385733 -248.777766 
L 619.385733 -254.647305 
L 619.385733 -260.516845 
L 619.385733 -266.386384 
L 619.385733 -272.255924 
L 619.385733 -278.125463 
L 619.384277 -283.995003 
L 619.384363 -289.864542 
L 619.385732 -295.734082 
L 619.385253 -301.603621 
L 619.385658 -307.47316 
L 619.382723 -313.3427 
L 619.385127 -319.212239 
L 619.385367 -325.081779 
L 619.38565 -330.951318 
L 619.385215 -336.820858 
L 619.384498 -342.690397 
L 619.385731 -348.559936 
L 619.385646 -354.429476 
L 619.385373 -360.299015 
L 619.384735 -366.168555 
L 619.385645 -372.038094 
L 619.384115 -377.907634 
L 619.384103 -383.777173 
L 619.385728 -389.646713 
L 619.384691 -395.516252 
L 619.38528 -401.385791 
L 619.385733 -407.255331 
L 619.385269 -413.12487 
L 619.383755 -418.99441 
L 619.385727 -424.863949 
L 619.383479 -430.733489 
L 619.385624 -436.603028 
L 619.385209 -442.472568 
L 619.385683 -448.342107 
L 619.383453 -454.211646 
L 619.384556 -460.081186 
L 619.382565 -465.950725 
L 619.385589 -471.820265 
L 619.385733 -477.689804 
L 619.384507 -483.559344 
L 619.381732 -489.428883 
L 619.383293 -495.298422 
L 619.384223 -501.167962 
L 619.385065 -507.037501 
L 619.385719 -512.907041 
L 619.381995 -518.77658 
L 619.380615 -524.64612 
L 619.38326 -530.515659 
L 619.382791 -536.385199 
L 619.385356 -542.254738 
L 619.383263 -548.124277 
L 619.381725 -553.993817 
L 619.37729 -559.863356 
L 619.378018 -565.732896 
L 619.374665 -571.602435 
L 619.378855 -577.471975 
L 619.377194 -583.341514 
L 619.378828 -589.211053 
L 619.37637 -595.080593 
L 619.376851 -600.950132 
L 619.381248 -606.819672 
L 619.376695 -612.689211 
L 619.369679 -618.558751 
L 619.379532 -624.42829 
L 619.375242 -630.29783 
L 619.373488 -636.167369 
L 619.37511 -642.036908 
L 619.375428 -647.906448 
L 619.358157 -653.775987 
L 619.372155 -659.645527 
L 619.366355 -665.515066 
L 619.349208 -671.384606 
L 619.356184 -677.254145 
L 619.347784 -683.123684 
L 619.326371 -688.993224 
L 619.323721 -694.862763 
L 619.309208 -700.732303 
L 619.281471 -706.601842 
L 619.20805 -712.471382 
L 619.004922 -718.340921 
L 618.170616 -724.210461 
L 553.29217 -730.08 
L 685.479297 -730.08 
L 685.479297 -730.08 
L 620.600851 -724.210461 
L 619.766544 -718.340921 
L 619.563417 -712.471382 
L 619.489995 -706.601842 
L 619.462259 -700.732303 
L 619.447746 -694.862763 
L 619.445095 -688.993224 
L 619.423682 -683.123684 
L 619.415282 -677.254145 
L 619.422259 -671.384606 
L 619.405111 -665.515066 
L 619.399311 -659.645527 
L 619.413309 -653.775987 
L 619.396038 -647.906448 
L 619.396356 -642.036908 
L 619.397979 -636.167369 
L 619.396224 -630.29783 
L 619.391934 -624.42829 
L 619.401788 -618.558751 
L 619.394772 -612.689211 
L 619.390218 -606.819672 
L 619.394615 -600.950132 
L 619.395096 -595.080593 
L 619.392639 -589.211053 
L 619.394273 -583.341514 
L 619.392612 -577.471975 
L 619.396801 -571.602435 
L 619.393449 -565.732896 
L 619.394177 -559.863356 
L 619.389742 -553.993817 
L 619.388204 -548.124277 
L 619.38611 -542.254738 
L 619.388676 -536.385199 
L 619.388207 -530.515659 
L 619.390851 -524.64612 
L 619.389471 -518.77658 
L 619.385747 -512.907041 
L 619.386402 -507.037501 
L 619.387243 -501.167962 
L 619.388174 -495.298422 
L 619.389734 -489.428883 
L 619.386959 -483.559344 
L 619.385734 -477.689804 
L 619.385878 -471.820265 
L 619.388901 -465.950725 
L 619.38691 -460.081186 
L 619.388014 -454.211646 
L 619.385784 -448.342107 
L 619.386258 -442.472568 
L 619.385842 -436.603028 
L 619.387988 -430.733489 
L 619.385739 -424.863949 
L 619.387712 -418.99441 
L 619.386197 -413.12487 
L 619.385733 -407.255331 
L 619.386187 -401.385791 
L 619.386776 -395.516252 
L 619.385739 -389.646713 
L 619.387364 -383.777173 
L 619.387351 -377.907634 
L 619.385821 -372.038094 
L 619.386732 -366.168555 
L 619.386093 -360.299015 
L 619.385821 -354.429476 
L 619.385735 -348.559936 
L 619.386969 -342.690397 
L 619.386251 -336.820858 
L 619.385816 -330.951318 
L 619.3861 -325.081779 
L 619.386339 -319.212239 
L 619.388744 -313.3427 
L 619.385809 -307.47316 
L 619.386213 -301.603621 
L 619.385734 -295.734082 
L 619.387104 -289.864542 
L 619.387189 -283.995003 
L 619.385734 -278.125463 
L 619.385733 -272.255924 
L 619.385733 -266.386384 
L 619.385733 -260.516845 
L 619.385733 -254.647305 
L 619.385733 -248.777766 
L 619.385733 -242.908227 
L 619.385733 -237.038687 
L 619.385735 -231.169148 
L 619.386917 -225.299608 
L 619.385733 -219.430069 
L 619.385733 -213.560529 
L 619.385733 -207.69099 
L 619.385733 -201.821451 
L 619.385733 -195.951911 
L 619.385733 -190.082372 
L 619.385733 -184.212832 
L 619.385733 -178.343293 
L 619.385733 -172.473753 
L 619.385733 -166.604214 
L 619.385733 -160.734674 
L 619.385734 -154.865135 
L 619.386964 -148.995596 
z
" id="m3d45835a85"/>
    </defs>
    <g clip-path="url(#p0fbe16eedb)">
     <use style="fill:#a69fff;" x="0" xlink:href="#m3d45835a85" y="864"/>
    </g>
   </g>
   <g id="PolyCollection_4">
    <defs>
     <path d="M 774.901 -186.864525 
L 774.899 -186.864525 
L 774.9 -192.35155 
L 774.9 -197.838575 
L 774.9 -203.3256 
L 774.9 -208.812625 
L 774.9 -214.29965 
L 774.9 -219.786675 
L 774.9 -225.2737 
L 774.9 -230.760725 
L 774.9 -236.24775 
L 774.9 -241.734775 
L 774.9 -247.2218 
L 774.9 -252.708825 
L 774.9 -258.19585 
L 774.9 -263.682875 
L 774.9 -269.1699 
L 774.9 -274.656925 
L 774.9 -280.14395 
L 774.9 -285.630975 
L 774.9 -291.118 
L 774.9 -296.605025 
L 774.9 -302.09205 
L 774.9 -307.579075 
L 774.9 -313.0661 
L 774.9 -318.553125 
L 774.9 -324.04015 
L 774.9 -329.527175 
L 774.9 -335.0142 
L 774.899991 -340.501225 
L 774.899108 -345.98825 
L 774.9 -351.475275 
L 774.899856 -356.9623 
L 774.899914 -362.449325 
L 774.899694 -367.93635 
L 774.9 -373.423375 
L 774.9 -378.9104 
L 774.9 -384.397425 
L 774.9 -389.88445 
L 774.9 -395.371475 
L 774.9 -400.8585 
L 774.9 -406.345525 
L 774.9 -411.83255 
L 774.9 -417.319575 
L 774.899901 -422.8066 
L 774.899051 -428.293625 
L 774.899181 -433.78065 
L 774.899996 -439.267675 
L 774.899993 -444.7547 
L 774.9 -450.241725 
L 774.899999 -455.72875 
L 774.898987 -461.215775 
L 774.899984 -466.7028 
L 774.899321 -472.189825 
L 774.899047 -477.67685 
L 774.899665 -483.163875 
L 774.899556 -488.6509 
L 774.9 -494.137925 
L 774.898952 -499.62495 
L 774.899873 -505.111975 
L 774.9 -510.599 
L 774.9 -516.086025 
L 774.899345 -521.57305 
L 774.897723 -527.060075 
L 774.898698 -532.5471 
L 774.899584 -538.034125 
L 774.899993 -543.52115 
L 774.898861 -549.008175 
L 774.8993 -554.4952 
L 774.898443 -559.982225 
L 774.899579 -565.46925 
L 774.898907 -570.956275 
L 774.898666 -576.4433 
L 774.898914 -581.930325 
L 774.898933 -587.41735 
L 774.899754 -592.904375 
L 774.899161 -598.3914 
L 774.897454 -603.878425 
L 774.898089 -609.36545 
L 774.899303 -614.852475 
L 774.897458 -620.3395 
L 774.898054 -625.826525 
L 774.899314 -631.31355 
L 774.897306 -636.800575 
L 774.895633 -642.2876 
L 774.894759 -647.774625 
L 774.89657 -653.26165 
L 774.898501 -658.748675 
L 774.897269 -664.2357 
L 774.893419 -669.722725 
L 774.896321 -675.20975 
L 774.891016 -680.696775 
L 774.889532 -686.1838 
L 774.886302 -691.670825 
L 774.881187 -697.15785 
L 774.877182 -702.644875 
L 774.863576 -708.1319 
L 774.849125 -713.618925 
L 774.786349 -719.10595 
L 774.535029 -724.592975 
L 708.806437 -730.08 
L 840.993563 -730.08 
L 840.993563 -730.08 
L 775.264971 -724.592975 
L 775.013651 -719.10595 
L 774.950875 -713.618925 
L 774.936424 -708.1319 
L 774.922818 -702.644875 
L 774.918813 -697.15785 
L 774.913698 -691.670825 
L 774.910468 -686.1838 
L 774.908984 -680.696775 
L 774.903679 -675.20975 
L 774.906581 -669.722725 
L 774.902731 -664.2357 
L 774.901499 -658.748675 
L 774.90343 -653.26165 
L 774.905241 -647.774625 
L 774.904367 -642.2876 
L 774.902694 -636.800575 
L 774.900686 -631.31355 
L 774.901946 -625.826525 
L 774.902542 -620.3395 
L 774.900697 -614.852475 
L 774.901911 -609.36545 
L 774.902546 -603.878425 
L 774.900839 -598.3914 
L 774.900246 -592.904375 
L 774.901067 -587.41735 
L 774.901086 -581.930325 
L 774.901334 -576.4433 
L 774.901093 -570.956275 
L 774.900421 -565.46925 
L 774.901557 -559.982225 
L 774.9007 -554.4952 
L 774.901139 -549.008175 
L 774.900007 -543.52115 
L 774.900416 -538.034125 
L 774.901302 -532.5471 
L 774.902277 -527.060075 
L 774.900655 -521.57305 
L 774.9 -516.086025 
L 774.9 -510.599 
L 774.900127 -505.111975 
L 774.901048 -499.62495 
L 774.9 -494.137925 
L 774.900444 -488.6509 
L 774.900335 -483.163875 
L 774.900953 -477.67685 
L 774.900679 -472.189825 
L 774.900016 -466.7028 
L 774.901013 -461.215775 
L 774.900001 -455.72875 
L 774.9 -450.241725 
L 774.900007 -444.7547 
L 774.900004 -439.267675 
L 774.900819 -433.78065 
L 774.900949 -428.293625 
L 774.900099 -422.8066 
L 774.9 -417.319575 
L 774.9 -411.83255 
L 774.9 -406.345525 
L 774.9 -400.8585 
L 774.9 -395.371475 
L 774.9 -389.88445 
L 774.9 -384.397425 
L 774.9 -378.9104 
L 774.9 -373.423375 
L 774.900306 -367.93635 
L 774.900086 -362.449325 
L 774.900144 -356.9623 
L 774.9 -351.475275 
L 774.900892 -345.98825 
L 774.900009 -340.501225 
L 774.9 -335.0142 
L 774.9 -329.527175 
L 774.9 -324.04015 
L 774.9 -318.553125 
L 774.9 -313.0661 
L 774.9 -307.579075 
L 774.9 -302.09205 
L 774.9 -296.605025 
L 774.9 -291.118 
L 774.9 -285.630975 
L 774.9 -280.14395 
L 774.9 -274.656925 
L 774.9 -269.1699 
L 774.9 -263.682875 
L 774.9 -258.19585 
L 774.9 -252.708825 
L 774.9 -247.2218 
L 774.9 -241.734775 
L 774.9 -236.24775 
L 774.9 -230.760725 
L 774.9 -225.2737 
L 774.9 -219.786675 
L 774.9 -214.29965 
L 774.9 -208.812625 
L 774.9 -203.3256 
L 774.9 -197.838575 
L 774.9 -192.35155 
L 774.901 -186.864525 
z
" id="m27de02f03b"/>
    </defs>
    <g clip-path="url(#p0fbe16eedb)">
     <use style="fill:#b80018;" x="0" xlink:href="#m27de02f03b" y="864"/>
    </g>
   </g>
   <g id="PolyCollection_5">
    <defs>
     <path d="M 930.418259 -198.858679 
L 930.410275 -198.858679 
L 930.412095 -204.224551 
L 930.414255 -209.590423 
L 930.414267 -214.956295 
L 930.414267 -220.322167 
L 930.414115 -225.688039 
L 930.412805 -231.053911 
L 930.414234 -236.419783 
L 930.413808 -241.785655 
L 930.413252 -247.151526 
L 930.414262 -252.517398 
L 930.414267 -257.88327 
L 930.414135 -263.249142 
L 930.412779 -268.615014 
L 930.414227 -273.980886 
L 930.413607 -279.346758 
L 930.413488 -284.71263 
L 930.414265 -290.078502 
L 930.414266 -295.444374 
L 930.413703 -300.810246 
L 930.41177 -306.176118 
L 930.414031 -311.54199 
L 930.4118 -316.907862 
L 930.411833 -322.273733 
L 930.412851 -327.639605 
L 930.413135 -333.005477 
L 930.410929 -338.371349 
L 930.410036 -343.737221 
L 930.410362 -349.103093 
L 930.4118 -354.468965 
L 930.413964 -359.834837 
L 930.409992 -365.200709 
L 930.412368 -370.566581 
L 930.411407 -375.932453 
L 930.413903 -381.298325 
L 930.414173 -386.664197 
L 930.411799 -392.030069 
L 930.407558 -397.39594 
L 930.410119 -402.761812 
L 930.413607 -408.127684 
L 930.410932 -413.493556 
L 930.411627 -418.859428 
L 930.410003 -424.2253 
L 930.407678 -429.591172 
L 930.411818 -434.957044 
L 930.410088 -440.322916 
L 930.409865 -445.688788 
L 930.407362 -451.05466 
L 930.412482 -456.420532 
L 930.410048 -461.786404 
L 930.411145 -467.152276 
L 930.408845 -472.518147 
L 930.409981 -477.884019 
L 930.406699 -483.249891 
L 930.410482 -488.615763 
L 930.409158 -493.981635 
L 930.408375 -499.347507 
L 930.404946 -504.713379 
L 930.410412 -510.079251 
L 930.407825 -515.445123 
L 930.411537 -520.810995 
L 930.408559 -526.176867 
L 930.407199 -531.542739 
L 930.407997 -536.908611 
L 930.400133 -542.274483 
L 930.404376 -547.640354 
L 930.405458 -553.006226 
L 930.402827 -558.372098 
L 930.403597 -563.73797 
L 930.402733 -569.103842 
L 930.398641 -574.469714 
L 930.393143 -579.835586 
L 930.398662 -585.201458 
L 930.40579 -590.56733 
L 930.395611 -595.933202 
L 930.393394 -601.299074 
L 930.396069 -606.664946 
L 930.395645 -612.030818 
L 930.39641 -617.39669 
L 930.396127 -622.762561 
L 930.385773 -628.128433 
L 930.39006 -633.494305 
L 930.370786 -638.860177 
L 930.381148 -644.226049 
L 930.379467 -649.591921 
L 930.372815 -654.957793 
L 930.364817 -660.323665 
L 930.36666 -665.689537 
L 930.353644 -671.055409 
L 930.341428 -676.421281 
L 930.316562 -681.787153 
L 930.309455 -687.153025 
L 930.284835 -692.518897 
L 930.273291 -697.884768 
L 930.213906 -703.25064 
L 930.152627 -708.616512 
L 930.015884 -713.982384 
L 929.622151 -719.348256 
L 924.619419 -724.714128 
L 864.320703 -730.08 
L 996.50783 -730.08 
L 996.50783 -730.08 
L 936.209114 -724.714128 
L 931.206382 -719.348256 
L 930.812649 -713.982384 
L 930.675906 -708.616512 
L 930.614627 -703.25064 
L 930.555242 -697.884768 
L 930.543699 -692.518897 
L 930.519079 -687.153025 
L 930.511972 -681.787153 
L 930.487106 -676.421281 
L 930.47489 -671.055409 
L 930.461874 -665.689537 
L 930.463716 -660.323665 
L 930.455718 -654.957793 
L 930.449067 -649.591921 
L 930.447386 -644.226049 
L 930.457747 -638.860177 
L 930.438473 -633.494305 
L 930.44276 -628.128433 
L 930.432407 -622.762561 
L 930.432123 -617.39669 
L 930.432888 -612.030818 
L 930.432464 -606.664946 
L 930.435139 -601.299074 
L 930.432923 -595.933202 
L 930.422743 -590.56733 
L 930.429871 -585.201458 
L 930.435391 -579.835586 
L 930.429892 -574.469714 
L 930.4258 -569.103842 
L 930.424936 -563.73797 
L 930.425706 -558.372098 
L 930.423075 -553.006226 
L 930.424157 -547.640354 
L 930.428401 -542.274483 
L 930.420536 -536.908611 
L 930.421334 -531.542739 
L 930.419974 -526.176867 
L 930.416996 -520.810995 
L 930.420709 -515.445123 
L 930.418121 -510.079251 
L 930.423587 -504.713379 
L 930.420158 -499.347507 
L 930.419375 -493.981635 
L 930.418051 -488.615763 
L 930.421834 -483.249891 
L 930.418552 -477.884019 
L 930.419688 -472.518147 
L 930.417389 -467.152276 
L 930.418485 -461.786404 
L 930.416052 -456.420532 
L 930.421171 -451.05466 
L 930.418669 -445.688788 
L 930.418445 -440.322916 
L 930.416715 -434.957044 
L 930.420855 -429.591172 
L 930.41853 -424.2253 
L 930.416906 -418.859428 
L 930.417602 -413.493556 
L 930.414927 -408.127684 
L 930.418415 -402.761812 
L 930.420975 -397.39594 
L 930.416735 -392.030069 
L 930.41436 -386.664197 
L 930.414631 -381.298325 
L 930.417127 -375.932453 
L 930.416165 -370.566581 
L 930.418541 -365.200709 
L 930.414569 -359.834837 
L 930.416733 -354.468965 
L 930.418171 -349.103093 
L 930.418497 -343.737221 
L 930.417605 -338.371349 
L 930.415398 -333.005477 
L 930.415683 -327.639605 
L 930.416701 -322.273733 
L 930.416734 -316.907862 
L 930.414502 -311.54199 
L 930.416763 -306.176118 
L 930.414831 -300.810246 
L 930.414267 -295.444374 
L 930.414269 -290.078502 
L 930.415046 -284.71263 
L 930.414926 -279.346758 
L 930.414307 -273.980886 
L 930.415755 -268.615014 
L 930.414399 -263.249142 
L 930.414267 -257.88327 
L 930.414272 -252.517398 
L 930.415281 -247.151526 
L 930.414726 -241.785655 
L 930.4143 -236.419783 
L 930.415728 -231.053911 
L 930.414419 -225.688039 
L 930.414267 -220.322167 
L 930.414267 -214.956295 
L 930.414278 -209.590423 
L 930.416438 -204.224551 
L 930.418259 -198.858679 
z
" id="m140ce12084"/>
    </defs>
    <g clip-path="url(#p0fbe16eedb)">
     <use style="fill:#1d3557;" x="0" xlink:href="#m140ce12084" y="864"/>
    </g>
   </g>
   <g id="PolyCollection_6">
    <defs>
     <path d="M 1085.933247 -191.756928 
L 1085.92382 -191.756928 
L 1085.926977 -197.194534 
L 1085.926076 -202.632141 
L 1085.928184 -208.069748 
L 1085.926024 -213.507355 
L 1085.928135 -218.944962 
L 1085.928533 -224.382568 
L 1085.928534 -229.820175 
L 1085.928534 -235.257782 
L 1085.928534 -240.695389 
L 1085.928534 -246.132996 
L 1085.928534 -251.570602 
L 1085.928534 -257.008209 
L 1085.928515 -262.445816 
L 1085.927065 -267.883423 
L 1085.927063 -273.321029 
L 1085.928515 -278.758636 
L 1085.928522 -284.196243 
L 1085.927273 -289.63385 
L 1085.926672 -295.071457 
L 1085.925869 -300.509063 
L 1085.92567 -305.94667 
L 1085.928017 -311.384277 
L 1085.927292 -316.821884 
L 1085.926831 -322.259491 
L 1085.928505 -327.697097 
L 1085.928534 -333.134704 
L 1085.928534 -338.572311 
L 1085.928534 -344.009918 
L 1085.928534 -349.447525 
L 1085.928522 -354.885131 
L 1085.926684 -360.322738 
L 1085.924252 -365.760345 
L 1085.921526 -371.197952 
L 1085.923614 -376.635559 
L 1085.927731 -382.073165 
L 1085.925586 -387.510772 
L 1085.926143 -392.948379 
L 1085.925924 -398.385986 
L 1085.923757 -403.823592 
L 1085.926707 -409.261199 
L 1085.926056 -414.698806 
L 1085.927022 -420.136413 
L 1085.925552 -425.57402 
L 1085.92277 -431.011626 
L 1085.922162 -436.449233 
L 1085.92155 -441.88684 
L 1085.92523 -447.324447 
L 1085.924549 -452.762054 
L 1085.917799 -458.19966 
L 1085.917927 -463.637267 
L 1085.922068 -469.074874 
L 1085.923441 -474.512481 
L 1085.92046 -479.950088 
L 1085.9235 -485.387694 
L 1085.913943 -490.825301 
L 1085.911894 -496.262908 
L 1085.920038 -501.700515 
L 1085.918378 -507.138122 
L 1085.923332 -512.575728 
L 1085.914898 -518.013335 
L 1085.917522 -523.450942 
L 1085.914379 -528.888549 
L 1085.905413 -534.326155 
L 1085.914166 -539.763762 
L 1085.920157 -545.201369 
L 1085.909258 -550.638976 
L 1085.90547 -556.076583 
L 1085.902964 -561.514189 
L 1085.905432 -566.951796 
L 1085.904385 -572.389403 
L 1085.901219 -577.82701 
L 1085.90816 -583.264617 
L 1085.894522 -588.702223 
L 1085.907523 -594.13983 
L 1085.899015 -599.577437 
L 1085.895042 -605.015044 
L 1085.90004 -610.452651 
L 1085.898444 -615.890257 
L 1085.892981 -621.327864 
L 1085.888147 -626.765471 
L 1085.894246 -632.203078 
L 1085.882604 -637.640685 
L 1085.874351 -643.078291 
L 1085.859835 -648.515898 
L 1085.856498 -653.953505 
L 1085.836353 -659.391112 
L 1085.841835 -664.828718 
L 1085.838447 -670.266325 
L 1085.811556 -675.703932 
L 1085.782122 -681.141539 
L 1085.769124 -686.579146 
L 1085.758086 -692.016752 
L 1085.710039 -697.454359 
L 1085.649541 -702.891966 
L 1085.543171 -708.329573 
L 1085.350137 -713.76718 
L 1084.878544 -719.204786 
L 1074.895746 -724.642393 
L 1019.83497 -730.08 
L 1152.022097 -730.08 
L 1152.022097 -730.08 
L 1096.961321 -724.642393 
L 1086.978523 -719.204786 
L 1086.50693 -713.76718 
L 1086.313896 -708.329573 
L 1086.207526 -702.891966 
L 1086.147028 -697.454359 
L 1086.098981 -692.016752 
L 1086.087943 -686.579146 
L 1086.074945 -681.141539 
L 1086.045511 -675.703932 
L 1086.01862 -670.266325 
L 1086.015232 -664.828718 
L 1086.020714 -659.391112 
L 1086.000569 -653.953505 
L 1085.997232 -648.515898 
L 1085.982716 -643.078291 
L 1085.974464 -637.640685 
L 1085.962821 -632.203078 
L 1085.96892 -626.765471 
L 1085.964086 -621.327864 
L 1085.958623 -615.890257 
L 1085.957027 -610.452651 
L 1085.962026 -605.015044 
L 1085.958052 -599.577437 
L 1085.949545 -594.13983 
L 1085.962545 -588.702223 
L 1085.948907 -583.264617 
L 1085.955848 -577.82701 
L 1085.952682 -572.389403 
L 1085.951635 -566.951796 
L 1085.954103 -561.514189 
L 1085.951597 -556.076583 
L 1085.947809 -550.638976 
L 1085.93691 -545.201369 
L 1085.942901 -539.763762 
L 1085.951654 -534.326155 
L 1085.942688 -528.888549 
L 1085.939545 -523.450942 
L 1085.942169 -518.013335 
L 1085.933735 -512.575728 
L 1085.938689 -507.138122 
L 1085.937029 -501.700515 
L 1085.945173 -496.262908 
L 1085.943124 -490.825301 
L 1085.933567 -485.387694 
L 1085.936607 -479.950088 
L 1085.933626 -474.512481 
L 1085.934999 -469.074874 
L 1085.93914 -463.637267 
L 1085.939268 -458.19966 
L 1085.932518 -452.762054 
L 1085.931837 -447.324447 
L 1085.935517 -441.88684 
L 1085.934905 -436.449233 
L 1085.934297 -431.011626 
L 1085.931515 -425.57402 
L 1085.930045 -420.136413 
L 1085.931011 -414.698806 
L 1085.93036 -409.261199 
L 1085.93331 -403.823592 
L 1085.931143 -398.385986 
L 1085.930924 -392.948379 
L 1085.931481 -387.510772 
L 1085.929336 -382.073165 
L 1085.933453 -376.635559 
L 1085.935541 -371.197952 
L 1085.932815 -365.760345 
L 1085.930384 -360.322738 
L 1085.928545 -354.885131 
L 1085.928534 -349.447525 
L 1085.928534 -344.009918 
L 1085.928534 -338.572311 
L 1085.928534 -333.134704 
L 1085.928562 -327.697097 
L 1085.930236 -322.259491 
L 1085.929775 -316.821884 
L 1085.92905 -311.384277 
L 1085.931397 -305.94667 
L 1085.931198 -300.509063 
L 1085.930395 -295.071457 
L 1085.929794 -289.63385 
L 1085.928545 -284.196243 
L 1085.928552 -278.758636 
L 1085.930004 -273.321029 
L 1085.930002 -267.883423 
L 1085.928552 -262.445816 
L 1085.928534 -257.008209 
L 1085.928534 -251.570602 
L 1085.928534 -246.132996 
L 1085.928534 -240.695389 
L 1085.928534 -235.257782 
L 1085.928534 -229.820175 
L 1085.928534 -224.382568 
L 1085.928932 -218.944962 
L 1085.931043 -213.507355 
L 1085.928883 -208.069748 
L 1085.930991 -202.632141 
L 1085.93009 -197.194534 
L 1085.933247 -191.756928 
z
" id="m45925ed1c8"/>
    </defs>
    <g clip-path="url(#p0fbe16eedb)">
     <use style="fill:#0f5257;" x="0" xlink:href="#m45925ed1c8" y="864"/>
    </g>
   </g>
   <g id="PolyCollection_7">
    <defs>
     <path d="M 1241.445595 -252.80796 
L 1241.440005 -252.80796 
L 1241.442186 -257.62889 
L 1241.440459 -262.44982 
L 1241.439565 -267.27075 
L 1241.441061 -272.091679 
L 1241.442752 -276.912609 
L 1241.4428 -281.733539 
L 1241.4428 -286.554468 
L 1241.4428 -291.375398 
L 1241.4428 -296.196328 
L 1241.4428 -301.017257 
L 1241.4428 -305.838187 
L 1241.442546 -310.659117 
L 1241.440151 -315.480046 
L 1241.44194 -320.300976 
L 1241.442792 -325.121906 
L 1241.4428 -329.942836 
L 1241.4428 -334.763765 
L 1241.4428 -339.584695 
L 1241.442761 -344.405625 
L 1241.441198 -349.226554 
L 1241.44065 -354.047484 
L 1241.439299 -358.868414 
L 1241.438808 -363.689343 
L 1241.438465 -368.510273 
L 1241.439733 -373.331203 
L 1241.441106 -378.152132 
L 1241.440788 -382.973062 
L 1241.442722 -387.793992 
L 1241.442747 -392.614922 
L 1241.44097 -397.435851 
L 1241.439079 -402.256781 
L 1241.438785 -407.077711 
L 1241.440745 -411.89864 
L 1241.434732 -416.71957 
L 1241.429309 -421.5405 
L 1241.438669 -426.361429 
L 1241.442157 -431.182359 
L 1241.436542 -436.003289 
L 1241.429467 -440.824218 
L 1241.424801 -445.645148 
L 1241.428055 -450.466078 
L 1241.430118 -455.287008 
L 1241.437917 -460.107937 
L 1241.43226 -464.928867 
L 1241.433763 -469.749797 
L 1241.439135 -474.570726 
L 1241.441911 -479.391656 
L 1241.437641 -484.212586 
L 1241.43454 -489.033515 
L 1241.436836 -493.854445 
L 1241.423865 -498.675375 
L 1241.425736 -503.496304 
L 1241.431353 -508.317234 
L 1241.433937 -513.138164 
L 1241.433935 -517.959094 
L 1241.429796 -522.780023 
L 1241.424557 -527.600953 
L 1241.429971 -532.421883 
L 1241.432512 -537.242812 
L 1241.426457 -542.063742 
L 1241.430279 -546.884672 
L 1241.434107 -551.705601 
L 1241.423713 -556.526531 
L 1241.423473 -561.347461 
L 1241.41408 -566.16839 
L 1241.424098 -570.98932 
L 1241.419139 -575.81025 
L 1241.405986 -580.63118 
L 1241.405994 -585.452109 
L 1241.413158 -590.273039 
L 1241.423379 -595.093969 
L 1241.415712 -599.914898 
L 1241.419228 -604.735828 
L 1241.409705 -609.556758 
L 1241.400493 -614.377687 
L 1241.41346 -619.198617 
L 1241.415455 -624.019547 
L 1241.413176 -628.840476 
L 1241.390622 -633.661406 
L 1241.382105 -638.482336 
L 1241.383736 -643.303266 
L 1241.388035 -648.124195 
L 1241.38561 -652.945125 
L 1241.361296 -657.766055 
L 1241.35196 -662.586984 
L 1241.358067 -667.407914 
L 1241.35197 -672.228844 
L 1241.326008 -677.049773 
L 1241.317749 -681.870703 
L 1241.296049 -686.691633 
L 1241.266549 -691.512562 
L 1241.225253 -696.333492 
L 1241.14795 -701.154422 
L 1241.097234 -705.975352 
L 1241.0028 -710.796281 
L 1240.734487 -715.617211 
L 1239.879543 -720.438141 
L 1225.367927 -725.25907 
L 1175.349237 -730.08 
L 1307.536364 -730.08 
L 1307.536364 -730.08 
L 1257.517674 -725.25907 
L 1243.006057 -720.438141 
L 1242.151114 -715.617211 
L 1241.882801 -710.796281 
L 1241.788366 -705.975352 
L 1241.73765 -701.154422 
L 1241.660348 -696.333492 
L 1241.619051 -691.512562 
L 1241.589551 -686.691633 
L 1241.567851 -681.870703 
L 1241.559592 -677.049773 
L 1241.533631 -672.228844 
L 1241.527534 -667.407914 
L 1241.53364 -662.586984 
L 1241.524305 -657.766055 
L 1241.49999 -652.945125 
L 1241.497566 -648.124195 
L 1241.501865 -643.303266 
L 1241.503495 -638.482336 
L 1241.494978 -633.661406 
L 1241.472425 -628.840476 
L 1241.470146 -624.019547 
L 1241.47214 -619.198617 
L 1241.485108 -614.377687 
L 1241.475895 -609.556758 
L 1241.466372 -604.735828 
L 1241.469889 -599.914898 
L 1241.462221 -595.093969 
L 1241.472442 -590.273039 
L 1241.479607 -585.452109 
L 1241.479614 -580.63118 
L 1241.466461 -575.81025 
L 1241.461503 -570.98932 
L 1241.471521 -566.16839 
L 1241.462128 -561.347461 
L 1241.461888 -556.526531 
L 1241.451494 -551.705601 
L 1241.455322 -546.884672 
L 1241.459144 -542.063742 
L 1241.453088 -537.242812 
L 1241.455629 -532.421883 
L 1241.461043 -527.600953 
L 1241.455805 -522.780023 
L 1241.451666 -517.959094 
L 1241.451664 -513.138164 
L 1241.454248 -508.317234 
L 1241.459864 -503.496304 
L 1241.461736 -498.675375 
L 1241.448764 -493.854445 
L 1241.451061 -489.033515 
L 1241.447959 -484.212586 
L 1241.44369 -479.391656 
L 1241.446466 -474.570726 
L 1241.451838 -469.749797 
L 1241.45334 -464.928867 
L 1241.447684 -460.107937 
L 1241.455482 -455.287008 
L 1241.457545 -450.466078 
L 1241.460799 -445.645148 
L 1241.456134 -440.824218 
L 1241.449059 -436.003289 
L 1241.443444 -431.182359 
L 1241.446931 -426.361429 
L 1241.456291 -421.5405 
L 1241.450869 -416.71957 
L 1241.444856 -411.89864 
L 1241.446815 -407.077711 
L 1241.446522 -402.256781 
L 1241.44463 -397.435851 
L 1241.442854 -392.614922 
L 1241.442879 -387.793992 
L 1241.444813 -382.973062 
L 1241.444494 -378.152132 
L 1241.445867 -373.331203 
L 1241.447136 -368.510273 
L 1241.446793 -363.689343 
L 1241.446301 -358.868414 
L 1241.444951 -354.047484 
L 1241.444403 -349.226554 
L 1241.44284 -344.405625 
L 1241.4428 -339.584695 
L 1241.4428 -334.763765 
L 1241.4428 -329.942836 
L 1241.442809 -325.121906 
L 1241.44366 -320.300976 
L 1241.44545 -315.480046 
L 1241.443054 -310.659117 
L 1241.442801 -305.838187 
L 1241.4428 -301.017257 
L 1241.4428 -296.196328 
L 1241.4428 -291.375398 
L 1241.4428 -286.554468 
L 1241.4428 -281.733539 
L 1241.442848 -276.912609 
L 1241.44454 -272.091679 
L 1241.446035 -267.27075 
L 1241.445142 -262.44982 
L 1241.443415 -257.62889 
L 1241.445595 -252.80796 
z
" id="maac8d2a993"/>
    </defs>
    <g clip-path="url(#p0fbe16eedb)">
     <use style="fill:#660708;" x="0" xlink:href="#maac8d2a993" y="864"/>
    </g>
   </g>
   <g id="LineCollection_1">
    <path clip-path="url(#p0fbe16eedb)" d="M 308.3572 134.464841 
L 308.3572 133.929744 
" style="fill:none;stroke:#000000;stroke-width:0.5;"/>
    <path clip-path="url(#p0fbe16eedb)" d="M 463.871466 133.95884 
L 463.871466 133.922178 
" style="fill:none;stroke:#000000;stroke-width:0.5;"/>
    <path clip-path="url(#p0fbe16eedb)" d="M 619.385733 134.048499 
L 619.385733 133.925445 
" style="fill:none;stroke:#000000;stroke-width:0.5;"/>
    <path clip-path="url(#p0fbe16eedb)" d="M 774.9 133.989331 
L 774.9 133.923993 
" style="fill:none;stroke:#000000;stroke-width:0.5;"/>
    <path clip-path="url(#p0fbe16eedb)" d="M 930.414267 134.05467 
L 930.414267 133.925082 
" style="fill:none;stroke:#000000;stroke-width:0.5;"/>
    <path clip-path="url(#p0fbe16eedb)" d="M 1085.928534 134.120008 
L 1085.928534 133.926171 
" style="fill:none;stroke:#000000;stroke-width:0.5;"/>
    <path clip-path="url(#p0fbe16eedb)" d="M 1241.4428 134.133439 
L 1241.4428 133.925989 
" style="fill:none;stroke:#000000;stroke-width:0.5;"/>
   </g>
   <g id="patch_3">
    <path d="M 189 768.96 
L 189 103.68 
" style="fill:none;stroke:#cccccc;stroke-linecap:square;stroke-linejoin:miter;stroke-width:0.8;"/>
   </g>
   <g id="patch_4">
    <path d="M 189 768.96 
L 1360.8 768.96 
" style="fill:none;stroke:#cccccc;stroke-linecap:square;stroke-linejoin:miter;stroke-width:0.8;"/>
   </g>
   <g id="PathCollection_1">
    <defs>
     <path d="M 0 1.936492 
C 0.513564 1.936492 1.006162 1.732451 1.369306 1.369306 
C 1.732451 1.006162 1.936492 0.513564 1.936492 0 
C 1.936492 -0.513564 1.732451 -1.006162 1.369306 -1.369306 
C 1.006162 -1.732451 0.513564 -1.936492 0 -1.936492 
C -0.513564 -1.936492 -1.006162 -1.732451 -1.369306 -1.369306 
C -1.732451 -1.006162 -1.936492 -0.513564 -1.936492 0 
C -1.936492 0.513564 -1.732451 1.006162 -1.369306 1.369306 
C -1.006162 1.732451 -0.513564 1.936492 0 1.936492 
z
" id="md3eb707e9b" style="stroke:#000000;stroke-width:0.5;"/>
    </defs>
    <g clip-path="url(#p0fbe16eedb)">
     <use style="fill:#ffffff;stroke:#000000;stroke-width:0.5;" x="308.3572" xlink:href="#md3eb707e9b" y="133.979895"/>
     <use style="fill:#ffffff;stroke:#000000;stroke-width:0.5;" x="463.871466" xlink:href="#md3eb707e9b" y="133.928349"/>
     <use style="fill:#ffffff;stroke:#000000;stroke-width:0.5;" x="619.385733" xlink:href="#md3eb707e9b" y="133.942687"/>
     <use style="fill:#ffffff;stroke:#000000;stroke-width:0.5;" x="774.9" xlink:href="#md3eb707e9b" y="133.935246"/>
     <use style="fill:#ffffff;stroke:#000000;stroke-width:0.5;" x="930.414267" xlink:href="#md3eb707e9b" y="133.939783"/>
     <use style="fill:#ffffff;stroke:#000000;stroke-width:0.5;" x="1085.928534" xlink:href="#md3eb707e9b" y="133.946498"/>
     <use style="fill:#ffffff;stroke:#000000;stroke-width:0.5;" x="1241.4428" xlink:href="#md3eb707e9b" y="133.947769"/>
    </g>
   </g>
  </g>
 </g>
 <defs>
  <clipPath id="p0fbe16eedb">
   <rect height="665.28" width="1171.8" x="189" y="103.68"/>
  </clipPath>
 </defs>
</svg>
